<?xml version="1.0" encoding="UTF-8"?>
<svg xmlns="http://www.w3.org/2000/svg" xmlns:xlink="http://www.w3.org/1999/xlink" version="1.2" >
<font id="Bw Glenn Sans Bold 2">
<font-face  font-family="Bw Glenn Sans" units-per-em="2048" ascent="1638" descent="-410" font-style="normal" font-weight="700" font-stretch="normal" cap-height="700" x-height="500" underline-position="-663" underline-thickness="102" />
<missing-glyph  horiz-adv-x="748" d="M68 0 L68 1365 L612 1365 L612 0 L68 0 Z M136 68 L544 68 L544 1297 L136 1297 L136 68 Z " />
<glyph glyph-name="space" unicode="&#x20;" horiz-adv-x="614" d="" />
<glyph glyph-name="exclam" unicode="&#x21;" horiz-adv-x="532" d="M102 131 Q102 198 148.5 237 Q195 276 266 276 Q335 276 382.5 237 Q430 198 430 131 Q430 65 382 24.5 Q334 -16 266 -16 Q195 -16 148.5 24.5 Q102 65 102 131 Z M152 481 L152 1434 L381 1434 L381 481 L152 481 Z " />
<glyph glyph-name="quotedbl" unicode="&#x22;" horiz-adv-x="743" d="M102 1434 L315 1434 L297 1073 L123 1073 L102 1434 Z M428 1434 L641 1434 L623 1073 L449 1073 L428 1434 Z " />
<glyph glyph-name="numbersign" unicode="&#x23;" horiz-adv-x="1228" d="M8 348 L8 571 L207 571 L268 860 L86 860 L86 1083 L315 1083 L391 1413 L610 1366 L545 1083 L803 1083 L877 1409 L1096 1362 L1032 1083 L1204 1083 L1204 860 L983 860 L922 571 L1126 571 L1126 348 L874 348 L807 27 L590 74 L645 348 L387 348 L319 29 L102 76 L158 348 L8 348 Z M434 571 L694 571 L756 860 L496 860 L434 571 Z " />
<glyph glyph-name="dollar" unicode="&#x24;" horiz-adv-x="1228" d="M102 446 L332 446 Q332 330 384.5 273.5 Q437 217 526 217 L702 217 Q798 217 868 274 Q938 331 938 420 Q938 473 910 511 Q882 549 835 571 Q788 593 727 609.5 Q666 626 598 639.5 Q530 653 462.5 669.5 Q395 686 334 714 Q273 742 226 780.5 Q179 819 151 882.5 Q123 946 123 1030 Q123 1119 157 1197.5 Q191 1276 245.5 1328.5 Q300 1381 368.5 1411.5 Q437 1442 506 1442 L522 1442 L522 1610 L745 1610 L745 1442 Q918 1437 1026.5 1317.5 Q1135 1198 1135 997 L905 997 Q905 1212 707 1212 L524 1212 Q444 1212 398 1160.5 Q352 1109 352 1030 Q352 981 380 945.5 Q408 910 455 889.5 Q502 869 563 853.5 Q624 838 692 823.5 Q760 809 827.5 790.5 Q895 772 956 740 Q1017 708 1064 664 Q1111 620 1139 548 Q1167 476 1167 383 Q1167 277 1108.5 188.5 Q1050 100 954 49 Q858 -2 745 -10 L745 -176 L522 -176 L522 -12 Q341 -10 221.5 111.5 Q102 233 102 446 Z " />
<glyph glyph-name="percent" unicode="&#x25;" horiz-adv-x="1228" d="M-133 -20 L1081 1483 L1280 1483 L66 -20 L-133 -20 Z M807 246 Q807 330 866.5 389.5 Q926 449 1012 449 Q1097 449 1157 389 Q1217 329 1217 246 Q1217 160 1157 99.5 Q1097 39 1012 39 Q926 39 866.5 99.5 Q807 160 807 246 Z M807 655 Q807 739 866.5 798.5 Q926 858 1012 858 Q1097 858 1157 798 Q1217 738 1217 655 Q1217 569 1157 509 Q1097 449 1012 449 Q926 449 866.5 509 Q807 569 807 655 Z M950 246 Q950 218 968 200 Q986 182 1012 182 Q1040 182 1057.5 200 Q1075 218 1075 246 Q1075 272 1057.5 288.5 Q1040 305 1012 305 Q985 305 967.5 288.5 Q950 272 950 246 Z M950 655 Q950 628 968 610 Q986 592 1012 592 Q1040 592 1057.5 609.5 Q1075 627 1075 655 Q1075 681 1057.5 698 Q1040 715 1012 715 Q986 715 968 698 Q950 681 950 655 Z " />
<glyph glyph-name="ampersand" unicode="&#x26;" horiz-adv-x="1361" d="M69 287 Q42 368 48.5 448.5 Q55 529 104.5 606 Q154 683 244 735 Q169 784 130 857 Q91 930 90.5 1006.5 Q90 1083 119.5 1160.5 Q149 1238 202.5 1298 Q256 1358 335.5 1396 Q415 1434 504 1434 L569 1434 Q711 1434 811 1330.5 Q911 1227 911 1073 L911 1024 L688 1024 L688 1073 Q688 1135 654 1172.5 Q620 1210 569 1210 L504 1210 Q444 1210 400 1180.5 Q356 1151 336 1106 Q316 1061 315.5 1009.5 Q315 958 335 913 Q355 868 399 838.5 Q443 809 504 809 L506 625 L463 625 Q417 625 380 607.5 Q343 590 320.5 562 Q298 534 286 498 Q274 462 274 424 Q274 386 286.5 350 Q299 314 321.5 286 Q344 258 381 240.5 Q418 223 463 223 L713 223 Q764 223 797.5 261.5 Q831 300 831 373 L831 483 L811 483 Q741 483 741 412 L741 360 L539 360 L539 463 Q539 564 609 625 Q679 686 809 686 L1042 686 Q1112 686 1112 760 L1112 811 L1315 811 L1315 707 Q1315 599 1249 541.5 Q1183 484 1055 483 L1055 373 Q1055 210 957 105 Q859 0 713 0 L463 0 Q369 0 287 39.5 Q205 79 150.5 142.5 Q96 206 69 287 Z " />
<glyph glyph-name="quotesingle" unicode="&#x27;" horiz-adv-x="622" d="M205 1434 L418 1434 L399 1073 L225 1073 L205 1434 Z " />
<glyph glyph-name="parenleft" unicode="&#x28;" horiz-adv-x="833" d="M205 731 Q205 902 230.5 1071.5 Q256 1241 295.5 1369 Q335 1497 364.5 1573.5 Q394 1650 420 1702 L625 1602 Q624 1601 604.5 1553 Q585 1505 572 1470.5 Q559 1436 536.5 1369 Q514 1302 498.5 1236.5 Q483 1171 467 1089.5 Q451 1008 442.5 916 Q434 824 434 731 Q434 608 454 473.5 Q474 339 500.5 239 Q527 139 558.5 47 Q590 -45 606 -84 Q622 -123 627 -133 L422 -236 Q332 -55 268.5 228.5 Q205 512 205 731 Z " />
<glyph glyph-name="parenright" unicode="&#x29;" horiz-adv-x="831" d="M205 -133 Q210 -123 226 -84 Q242 -45 273 46.5 Q304 138 330.5 238.5 Q357 339 377 473.5 Q397 608 397 731 Q397 824 389 916 Q381 1008 364.5 1089.5 Q348 1171 333 1236.5 Q318 1302 295 1369 Q272 1436 260 1470 Q248 1504 228 1553 L207 1602 L412 1702 Q438 1650 467.5 1573.5 Q497 1497 536.5 1369 Q576 1241 601.5 1071.5 Q627 902 627 731 Q627 512 563.5 228.5 Q500 -55 410 -236 L205 -133 Z " />
<glyph glyph-name="asterisk" unicode="&#x2a;" horiz-adv-x="1228" d="M219 1028 L457 1143 L219 1257 L293 1421 L498 1307 L498 1528 L682 1528 L682 1309 L889 1421 L961 1257 L723 1143 L961 1028 L889 864 L682 977 L682 756 L498 756 L498 977 L293 864 L219 1028 Z " />
<glyph glyph-name="plus" unicode="&#x2b;" horiz-adv-x="1327" d="M205 467 L205 664 L565 664 L565 1024 L762 1024 L762 664 L1122 664 L1122 467 L762 467 L762 106 L565 106 L565 467 L205 467 Z " />
<glyph glyph-name="comma" unicode="&#x2c;" horiz-adv-x="673" d="M102 -219 L256 205 L469 205 L276 -219 L102 -219 Z " />
<glyph glyph-name="hyphen" unicode="&#x2d;" horiz-adv-x="1009" d="M184 471 L184 668 L825 668 L825 471 L184 471 Z " />
<glyph glyph-name="period" unicode="&#x2e;" horiz-adv-x="532" d="M102 131 Q102 198 148.5 237 Q195 276 266 276 Q335 276 382.5 237 Q430 198 430 131 Q430 65 382 24.5 Q334 -16 266 -16 Q195 -16 148.5 24.5 Q102 65 102 131 Z " />
<glyph glyph-name="slash" unicode="&#x2f;" horiz-adv-x="1228" d="M127 -317 L811 1497 L1040 1427 L354 -387 L127 -317 Z " />
<glyph glyph-name="zero" unicode="0" horiz-adv-x="1280" d="M102 522 L102 911 Q102 1159 255 1301.5 Q408 1444 647 1444 Q757 1444 853.5 1407.5 Q950 1371 1022.5 1304 Q1095 1237 1136.5 1135.5 Q1178 1034 1178 911 L1178 522 Q1178 397 1135.5 295 Q1093 193 1020 127 Q947 61 851 25.5 Q755 -10 647 -10 L635 -10 Q486 -10 366 52 Q246 114 174 236.5 Q102 359 102 522 Z M326 522 Q326 371 413 292 Q500 213 635 213 L647 213 Q782 213 868 292 Q954 371 954 522 L954 911 Q954 1062 868 1141.5 Q782 1221 647 1221 Q500 1221 413 1142.5 Q326 1064 326 911 L326 522 Z " />
<glyph glyph-name="one" unicode="1" horiz-adv-x="661" d="M29 1180 L412 1434 L559 1434 L559 0 L336 0 L336 1118 L152 995 L29 1180 Z " />
<glyph glyph-name="two" unicode="2" horiz-adv-x="1224" d="M102 0 L102 113 Q102 230 145.5 327.5 Q189 425 259 492 Q329 559 413 616 Q497 673 581.5 720.5 Q666 768 736 813.5 Q806 859 849.5 916 Q893 973 893 1038 Q893 1084 872.5 1118 Q852 1152 816.5 1171.5 Q781 1191 738 1200.5 Q695 1210 645 1210 Q526 1210 457.5 1157 Q389 1104 401 1028 L178 1028 Q163 1199 301.5 1316.5 Q440 1434 666 1434 Q893 1434 1000.5 1334.5 Q1108 1235 1108 1038 Q1108 947 1068.5 869 Q1029 791 966.5 735.5 Q904 680 828 630.5 Q752 581 675.5 536.5 Q599 492 536.5 447.5 Q474 403 434.5 345.5 Q395 288 395 223 L1102 223 L1102 0 L102 0 Z " />
<glyph glyph-name="three" unicode="3" horiz-adv-x="1210" d="M102 373 L326 373 Q326 300 359.5 261.5 Q393 223 444 223 L694 223 Q739 223 776 240.5 Q813 258 835.5 286 Q858 314 870.5 350 Q883 386 883 424 Q883 462 871 498 Q859 534 836.5 562 Q814 590 777 607.5 Q740 625 694 625 L481 625 L481 809 L653 809 Q705 809 746 831 Q787 853 808 888.5 Q829 924 838.5 966.5 Q848 1009 838 1052 Q828 1095 807 1130.5 Q786 1166 745 1188 Q704 1210 653 1210 L444 1210 Q393 1210 359.5 1172.5 Q326 1135 326 1073 L102 1073 Q102 1227 202 1330.5 Q302 1434 444 1434 L653 1434 Q742 1434 821.5 1396 Q901 1358 954.5 1298 Q1008 1238 1037.5 1160.5 Q1067 1083 1066.5 1006.5 Q1066 930 1027 857 Q988 784 913 735 Q1003 683 1052.5 606 Q1102 529 1108.5 448.5 Q1115 368 1088 287 Q1061 206 1006.5 142.5 Q952 79 870 39.5 Q788 0 694 0 L444 0 Q298 0 200 105 Q102 210 102 373 Z " />
<glyph glyph-name="four" unicode="4" horiz-adv-x="1226" d="M102 254 L102 434 L821 1434 L993 1434 L993 481 L1124 481 L1124 252 L993 252 L993 0 L764 0 L764 252 L102 254 Z M418 481 L764 481 L764 965 L418 481 Z " />
<glyph glyph-name="five" unicode="5" horiz-adv-x="1267" d="M102 395 L326 395 Q326 326 368 274.5 Q410 223 485 223 L752 223 Q832 223 887 276.5 Q942 330 942 416 Q942 491 932.5 532.5 Q923 574 890.5 604.5 Q858 635 798 646 Q738 657 635 657 L127 657 L236 1434 L1079 1434 L1079 1212 L430 1212 L383 881 L664 881 Q805 881 903.5 850.5 Q1002 820 1058.5 758.5 Q1115 697 1140 614 Q1165 531 1165 416 Q1165 238 1044.5 119 Q924 0 752 0 L444 0 Q350 0 270.5 56.5 Q191 113 146.5 203.5 Q102 294 102 395 Z " />
<glyph glyph-name="six" unicode="6" horiz-adv-x="1269" d="M102 406 L102 1028 Q102 1196 221 1315 Q340 1434 508 1434 L725 1434 Q891 1434 1010.5 1315 Q1130 1196 1130 1028 L907 1028 Q907 1103 853.5 1156.5 Q800 1210 725 1210 L508 1210 Q433 1210 379.5 1156.5 Q326 1103 326 1028 L326 811 Q351 838 400 854 Q449 870 496 870 L774 870 Q937 870 1052 755 Q1167 640 1167 479 L1167 406 Q1167 238 1048.5 119 Q930 0 762 0 L508 0 Q340 0 221 119 Q102 238 102 406 Z M326 406 Q326 331 379.5 277 Q433 223 508 223 L762 223 Q837 223 890.5 277 Q944 331 944 406 L944 479 Q944 548 894 597.5 Q844 647 774 647 L496 647 Q427 647 376.5 597.5 Q326 548 326 479 L326 406 Z " />
<glyph glyph-name="seven" unicode="7" horiz-adv-x="1185" d="M102 1210 L102 1432 L1083 1434 L1083 1264 L500 0 L246 0 L795 1208 L102 1210 Z " />
<glyph glyph-name="eight" unicode="8" horiz-adv-x="1265" d="M102 414 L102 416 Q102 517 164 613 Q226 709 317 754 Q252 801 216 872 Q180 943 178 1022 Q178 1189 300.5 1311.5 Q423 1434 592 1434 L672 1434 Q843 1434 963.5 1313.5 Q1084 1193 1087 1022 Q1085 940 1048 864.5 Q1011 789 946 752 Q1040 706 1101.5 611 Q1163 516 1163 416 Q1162 314 1109 217.5 Q1056 121 969 60.5 Q882 0 788 0 L516 0 Q346 0 225 121.5 Q104 243 102 414 Z M326 416 Q326 337 382 280 Q438 223 516 223 L750 223 Q828 223 884 280 Q940 337 940 416 Q940 494 884 550 Q828 606 750 606 L516 606 Q438 606 382 550 Q326 494 326 416 Z M401 1020 Q401 943 458 885 Q515 827 592 827 L672 827 Q753 827 808.5 885.5 Q864 944 864 1020 Q862 1099 806.5 1154.5 Q751 1210 672 1210 L592 1210 Q514 1210 457.5 1154 Q401 1098 401 1020 Z " />
<glyph glyph-name="nine" unicode="9" horiz-adv-x="1267" d="M102 406 L326 406 Q326 331 379.5 277 Q433 223 508 223 L760 223 Q835 223 888.5 277 Q942 331 942 406 L942 602 Q868 563 774 563 L494 563 Q333 563 217.5 678 Q102 793 102 954 L102 1028 Q102 1196 221 1315 Q340 1434 508 1434 L760 1434 Q928 1434 1046.5 1315 Q1165 1196 1165 1028 L1165 406 Q1165 235 1045.5 117.5 Q926 0 760 0 L508 0 Q340 0 221 119 Q102 238 102 406 Z M326 954 Q326 885 375.5 835.5 Q425 786 494 786 L774 786 Q843 786 892.5 835.5 Q942 885 942 954 L942 1028 Q942 1103 888.5 1156.5 Q835 1210 760 1210 L508 1210 Q433 1210 379.5 1156.5 Q326 1103 326 1028 L326 954 Z " />
<glyph glyph-name="colon" unicode="&#x3a;" horiz-adv-x="737" d="M102 131 Q102 198 148.5 237 Q195 276 266 276 Q335 276 382.5 237 Q430 198 430 131 Q430 65 382 24.5 Q334 -16 266 -16 Q195 -16 148.5 24.5 Q102 65 102 131 Z M102 860 Q102 927 148.5 966.5 Q195 1006 266 1006 Q335 1006 382.5 966.5 Q430 927 430 860 Q430 794 382 753.5 Q334 713 266 713 Q195 713 148.5 753.5 Q102 794 102 860 Z " />
<glyph glyph-name="semicolon" unicode="&#x3b;" horiz-adv-x="833" d="M102 -205 L256 219 L469 219 L276 -205 L102 -205 Z M222 589.5 Q174 638 174 705 Q174 772 222 820 Q270 868 338 868 L362 868 Q430 868 478 820 Q526 772 526 705 Q526 638 478 589.5 Q430 541 362 541 L338 541 Q270 541 222 589.5 Z " />
<glyph glyph-name="equal" unicode="&#x3d;" horiz-adv-x="1327" d="M205 254 L205 451 L1122 451 L1122 254 L205 254 Z M205 684 L205 881 L1122 881 L1122 684 L205 684 Z " />
<glyph glyph-name="question" unicode="&#x3f;" horiz-adv-x="985" d="M43 1024 Q28 1227 151 1330.5 Q274 1434 498 1434 Q727 1434 835.5 1323.5 Q944 1213 944 983 Q944 911 922 859.5 Q900 808 866 779.5 Q832 751 790.5 728 Q749 705 708.5 681.5 Q668 658 635.5 626 Q603 594 585.5 537.5 Q568 481 573 401 L344 401 Q336 497 352 569.5 Q368 642 400.5 685 Q433 728 473.5 760 Q514 792 556.5 816.5 Q599 841 634.5 866.5 Q670 892 692.5 931.5 Q715 971 715 1024 Q715 1084 696 1125.5 Q677 1167 642.5 1188 Q608 1209 571 1217 Q534 1225 487 1225 Q436 1225 397.5 1217 Q359 1209 325.5 1188 Q292 1167 277.5 1125.5 Q263 1084 270 1024 L43 1024 Z M328 135 Q328 190 368 230 Q408 270 463 270 L483 270 Q538 270 578 230 Q618 190 618 135 Q618 78 578.5 39 Q539 0 483 0 L463 0 Q407 0 367.5 39 Q328 78 328 135 Z " />
<glyph glyph-name="at" unicode="&#x40;" horiz-adv-x="1818" d="M143 616 Q143 1015 350 1249 Q557 1483 909 1483 Q1100 1483 1246 1422 Q1392 1361 1486 1247 Q1580 1133 1627.5 974.5 Q1675 816 1675 616 Q1675 501 1656.5 405.5 Q1638 310 1599.5 233 Q1561 156 1494.5 113 Q1428 70 1339 70 Q1250 70 1176 144.5 Q1102 219 1100 287 Q1076 243 1013 214.5 Q950 186 899 186 Q741 186 649 302.5 Q557 419 557 596 Q557 774 651 889 Q745 1004 899 1004 Q962 1004 1025 969.5 Q1088 935 1112 885 Q1128 942 1178 971 L1294 870 Q1276 852 1257.5 810.5 Q1239 769 1239 745 L1241 418 Q1241 373 1268.5 334 Q1296 295 1339 291 Q1452 291 1452 616 Q1452 726 1436 818.5 Q1420 911 1381 995 Q1342 1079 1281 1136.5 Q1220 1194 1125.5 1228 Q1031 1262 909 1262 Q649 1262 508 1087.5 Q367 913 367 616 Q367 -82 930 -82 Q1020 -82 1094 -55 L1171 -264 Q1056 -305 930 -305 Q759 -305 623 -254 Q487 -203 398.5 -117.5 Q310 -32 251.5 88 Q193 208 168 338.5 Q143 469 143 616 Z M764 596 Q764 517 797.5 463.5 Q831 410 899 410 Q964 410 1000 459 Q1036 508 1036 596 Q1036 683 1000.5 731.5 Q965 780 899 780 Q834 780 799 725 Q764 670 764 596 Z " />
<glyph glyph-name="A" unicode="A" horiz-adv-x="1327" d="M20 0 L586 1434 L743 1434 L1307 0 L1063 0 L942 313 L385 313 L268 0 L20 0 Z M453 545 L877 545 L664 1090 L453 545 Z " />
<glyph glyph-name="B" unicode="B" horiz-adv-x="1189" d="M102 1434 L641 1434 Q728 1434 804 1401.5 Q880 1369 933 1316 Q986 1263 1018.5 1192 Q1051 1121 1057 1047 Q1058 1032 1058 1017 Q1058 958 1039 896 Q1015 818 961 754 Q1037 688 1079.5 604 Q1122 520 1127 438 Q1128 424 1128 411 Q1128 342 1106 275 Q1080 195 1028.5 134.5 Q977 74 896 37 Q815 0 719 0 L104 0 L102 1434 Z M334 229 L719 229 Q768 229 806.5 249.5 Q845 270 866 303 Q888 336 898 376 Q904 397 903 418 Q903 436 899 455 Q890 495 870.5 528 Q851 561 811 581.5 Q771 602 719 602 L334 602 L334 229 Z M334 831 L641 831 Q690 831 729 851.5 Q768 872 790 905 Q812 938 822 978 Q828 1000 827 1022 Q828 1040 824 1058 Q816 1098 795.5 1130.5 Q775 1163 734.5 1183.5 Q694 1204 641 1204 L334 1204 L334 831 Z " />
<glyph glyph-name="C" unicode="C" horiz-adv-x="1146" d="M61 399 L61 1026 Q61 1197 182.5 1319.5 Q304 1442 477 1442 L670 1442 Q844 1442 964.5 1318 Q1085 1194 1085 1026 L856 1026 Q856 1102 801 1157 Q746 1212 670 1212 L477 1212 Q400 1212 345.5 1157 Q291 1102 291 1026 L291 399 Q291 322 345.5 267.5 Q400 213 477 213 L670 213 Q746 213 801 267.5 Q856 322 856 399 L1085 399 Q1085 228 964 106 Q843 -16 670 -16 L477 -16 Q362 -16 265.5 41.5 Q169 99 115 194 Q61 289 61 399 Z " />
<glyph glyph-name="D" unicode="D" horiz-adv-x="1187" d="M102 0 L102 1434 L711 1434 Q882 1434 1002.5 1313.5 Q1123 1193 1126 1022 L1126 412 Q1123 241 1002.5 120.5 Q882 0 711 0 L102 0 Z M332 229 L711 229 Q787 229 842 284 Q897 339 897 416 L897 1018 Q897 1094 842.5 1149 Q788 1204 711 1204 L332 1204 L332 229 Z " />
<glyph glyph-name="E" unicode="E" horiz-adv-x="1114" d="M100 0 L102 1434 L1053 1434 L1053 1204 L332 1204 L332 831 L854 831 L854 602 L332 602 L332 229 L1053 229 L1053 0 L100 0 Z " />
<glyph glyph-name="F" unicode="F" horiz-adv-x="1052" d="M102 0 L102 1434 L1012 1434 L1012 1204 L332 1204 L332 831 L813 831 L813 602 L332 602 L332 0 L102 0 Z " />
<glyph glyph-name="G" unicode="G" horiz-adv-x="1146" d="M61 399 L61 1026 Q61 1197 182.5 1319.5 Q304 1442 477 1442 L670 1442 Q850 1442 967.5 1323 Q1085 1204 1085 1012 L856 1012 Q856 1116 804.5 1164 Q753 1212 670 1212 L477 1212 Q400 1212 345.5 1157 Q291 1102 291 1026 L291 399 Q291 322 345.5 267.5 Q400 213 477 213 L670 213 Q746 213 801 267.5 Q856 322 856 399 L856 522 L580 522 L580 733 L1085 733 L1085 399 Q1085 228 964 106 Q843 -16 670 -16 L477 -16 Q362 -16 265.5 41.5 Q169 99 115 194 Q61 289 61 399 Z " />
<glyph glyph-name="H" unicode="H" horiz-adv-x="1228" d="M102 0 L102 1434 L332 1434 L332 831 L897 831 L897 1434 L1126 1434 L1126 0 L897 0 L897 602 L332 602 L332 0 L102 0 Z " />
<glyph glyph-name="I" unicode="I" horiz-adv-x="528" d="M154 0 L154 1434 L375 1434 L375 0 L154 0 Z " />
<glyph glyph-name="J" unicode="J" horiz-adv-x="1085" d="M61 416 L61 518 L291 518 L291 416 Q291 339 346 284 Q401 229 477 229 L608 229 Q684 229 739.5 284.5 Q795 340 795 416 L795 1434 L1024 1434 L1024 416 Q1024 248 903 124 Q782 0 608 0 L477 0 Q304 0 182.5 122.5 Q61 245 61 416 Z " />
<glyph glyph-name="K" unicode="K" horiz-adv-x="1406" d="M102 0 L102 1434 L332 1434 L332 807 L975 1434 L1294 1434 L651 805 L1305 0 L1001 0 L463 657 L332 530 L332 0 L102 0 Z " />
<glyph glyph-name="L" unicode="L" horiz-adv-x="1075" d="M102 0 L102 1434 L332 1434 L332 229 L973 229 L973 0 L102 0 Z " />
<glyph glyph-name="M" unicode="M" horiz-adv-x="1433" d="M102 0 L102 1434 L276 1434 L717 784 L1157 1434 L1331 1434 L1331 0 L1102 0 L1102 946 L813 508 L625 508 L332 946 L332 0 L102 0 Z " />
<glyph glyph-name="N" unicode="N" horiz-adv-x="1392" d="M102 0 L102 1434 L276 1434 L1061 428 L1061 1434 L1290 1434 L1290 0 L1112 0 L332 1006 L332 0 L102 0 Z " />
<glyph glyph-name="O" unicode="O" horiz-adv-x="1249" d="M61 399 L63 1028 Q63 1199 183.5 1320.5 Q304 1442 477 1442 L774 1442 Q942 1442 1065 1322 Q1188 1202 1188 1034 L1188 395 Q1188 225 1066.5 104.5 Q945 -16 774 -16 L477 -16 Q305 -16 183 105 Q61 226 61 399 Z M291 399 Q291 321 345 267 Q399 213 477 213 L774 213 Q851 213 906 267 Q961 321 961 399 L961 1024 Q961 1101 905.5 1156.5 Q850 1212 774 1212 L477 1212 Q400 1212 345.5 1158 Q291 1104 291 1026 L291 399 Z " />
<glyph glyph-name="P" unicode="P" horiz-adv-x="1167" d="M102 0 L102 1434 L719 1434 Q818 1434 897.5 1394.5 Q977 1355 1026 1291 Q1076 1227 1102 1145 Q1128 1065 1127 980 Q1126 892 1100 809 Q1074 727 1025 663 Q976 599 896.5 559.5 Q817 520 719 520 L332 520 L332 0 L102 0 Z M332 750 L719 750 Q767 750 806 775 Q845 800 866 840 Q887 880 898 928 Q904 955 904 983 Q904 1004 900 1026 Q892 1074 872.5 1114 Q853 1154 812.5 1179 Q772 1204 719 1204 L332 1204 L332 750 Z " />
<glyph glyph-name="Q" unicode="Q" horiz-adv-x="1249" d="M61 399 L63 1028 Q63 1199 183.5 1320.5 Q304 1442 477 1442 L774 1442 Q942 1442 1065 1322 Q1188 1202 1188 1034 L1188 395 Q1188 225 1066.5 104.5 Q945 -16 774 -16 L756 -16 L758 -215 L512 -217 L510 -16 L477 -16 Q305 -16 183 105 Q61 226 61 399 Z M291 399 Q291 321 345 267 Q399 213 477 213 L510 213 L508 391 L754 393 L756 213 L774 213 Q851 213 906 267 Q961 321 961 399 L961 1024 Q961 1101 905.5 1156.5 Q850 1212 774 1212 L477 1212 Q400 1212 345.5 1158 Q291 1104 291 1026 L291 399 Z " />
<glyph glyph-name="R" unicode="R" horiz-adv-x="1243" d="M102 0 L102 1434 L707 1434 Q829 1434 924 1386.5 Q1019 1339 1069 1262 Q1120 1185 1144 1092 Q1159 1036 1159 979 Q1159 942 1152 904 Q1136 809 1097 729 Q1058 649 981.5 594.5 Q905 540 809 532 L1180 0 L913 0 L569 520 L332 520 L332 0 L102 0 Z M332 750 L686 750 Q770 750 826 797 Q884 844 896 910 Q902 943 902 976.5 Q902 1010 896 1044 Q884 1110 832 1157 Q780 1204 707 1204 L332 1204 L332 750 Z " />
<glyph glyph-name="S" unicode="S" horiz-adv-x="1228" d="M102 446 L332 446 Q332 330 384.5 273.5 Q437 217 526 217 L702 217 Q798 217 868 274 Q938 331 938 420 Q938 473 910 511 Q882 549 835 571 Q788 593 727 609.5 Q666 626 598 639.5 Q530 653 462.5 669.5 Q395 686 334 714 Q273 742 226 780.5 Q179 819 151 882.5 Q123 946 123 1030 Q123 1119 157 1197.5 Q191 1276 245.5 1328.5 Q300 1381 368.5 1411.5 Q437 1442 506 1442 L731 1442 Q910 1442 1022.5 1322.5 Q1135 1203 1135 997 L905 997 Q905 1212 707 1212 L524 1212 Q444 1212 398 1160.5 Q352 1109 352 1030 Q352 981 380 945.5 Q408 910 455 889.5 Q502 869 563 853.5 Q624 838 692 823.5 Q760 809 827.5 790.5 Q895 772 956 740 Q1017 708 1064 664 Q1111 620 1139 548 Q1167 476 1167 383 Q1167 270 1101.5 178.5 Q1036 87 930 37.5 Q824 -12 702 -12 L526 -12 Q438 -12 361.5 18.5 Q285 49 227 105.5 Q169 162 135.5 250 Q102 338 102 446 Z " />
<glyph glyph-name="T" unicode="T" horiz-adv-x="1083" d="M41 1204 L41 1434 L1042 1434 L1042 1204 L655 1204 L655 0 L428 0 L428 1204 L41 1204 Z " />
<glyph glyph-name="U" unicode="U" horiz-adv-x="1228" d="M102 399 L104 1434 L334 1434 L332 399 Q332 322 387 267.5 Q442 213 518 213 L711 213 Q788 213 842.5 267.5 Q897 322 897 399 L897 1434 L1126 1434 L1126 397 Q1126 216 1019.5 100 Q913 -16 711 -16 L518 -16 Q345 -16 223.5 105 Q102 226 102 399 Z " />
<glyph glyph-name="V" unicode="V" horiz-adv-x="1155" d="M20 1434 L262 1434 L578 465 L893 1434 L1135 1434 L659 0 L498 0 L20 1434 Z " />
<glyph glyph-name="W" unicode="W" horiz-adv-x="1433" d="M102 0 L102 1434 L332 1434 L332 487 L625 926 L813 926 L1102 487 L1102 1434 L1331 1434 L1331 0 L1157 0 L717 649 L276 0 L102 0 Z " />
<glyph glyph-name="X" unicode="X" horiz-adv-x="1263" d="M20 0 L485 717 L20 1434 L295 1434 L633 903 L969 1434 L1243 1434 L778 717 L1243 0 L969 0 L633 530 L295 0 L20 0 Z " />
<glyph glyph-name="Y" unicode="Y" horiz-adv-x="1271" d="M20 1434 L295 1434 L635 922 L975 1434 L1251 1434 L748 678 L750 0 L522 0 L520 678 L20 1434 Z " />
<glyph glyph-name="Z" unicode="Z" horiz-adv-x="1214" d="M102 0 L102 184 L807 1204 L102 1204 L102 1434 L1112 1434 L1112 1249 L428 229 L1112 229 L1112 0 L102 0 Z " />
<glyph glyph-name="bracketleft" unicode="&#x5b;" horiz-adv-x="890" d="M205 -242 L205 1669 L686 1669 L686 1444 L430 1444 L430 -16 L686 -16 L686 -242 L205 -242 Z " />
<glyph glyph-name="backslash" unicode="&#x5c;" horiz-adv-x="1228" d="M127 1427 L356 1497 L1040 -317 L813 -387 L127 1427 Z " />
<glyph glyph-name="bracketright" unicode="&#x5d;" horiz-adv-x="890" d="M205 -16 L461 -16 L461 1444 L205 1444 L205 1669 L686 1669 L686 -242 L205 -242 L205 -16 Z " />
<glyph glyph-name="asciicircum" unicode="&#x5e;" horiz-adv-x="1228" d="M289 1120 L573 1434 L653 1434 L938 1120 L801 1024 L614 1251 L426 1024 L289 1120 Z " />
<glyph glyph-name="underscore" unicode="&#x5f;" horiz-adv-x="1327" d="M205 -100 L1122 -100 L1122 -297 L205 -297 L205 -100 Z " />
<glyph glyph-name="a" unicode="a" horiz-adv-x="1327" d="M20 0 L586 1434 L743 1434 L1307 0 L1063 0 L942 313 L385 313 L268 0 L20 0 Z M453 545 L877 545 L664 1090 L453 545 Z " />
<glyph glyph-name="b" unicode="b" horiz-adv-x="1189" d="M102 1434 L641 1434 Q728 1434 804 1401.5 Q880 1369 933 1316 Q986 1263 1018.5 1192 Q1051 1121 1057 1047 Q1058 1032 1058 1017 Q1058 958 1039 896 Q1015 818 961 754 Q1037 688 1079.5 604 Q1122 520 1127 438 Q1128 424 1128 411 Q1128 342 1106 275 Q1080 195 1028.5 134.5 Q977 74 896 37 Q815 0 719 0 L104 0 L102 1434 Z M334 229 L719 229 Q768 229 806.5 249.5 Q845 270 866 303 Q888 336 898 376 Q904 397 903 418 Q903 436 899 455 Q890 495 870.5 528 Q851 561 811 581.5 Q771 602 719 602 L334 602 L334 229 Z M334 831 L641 831 Q690 831 729 851.5 Q768 872 790 905 Q812 938 822 978 Q828 1000 827 1022 Q828 1040 824 1058 Q816 1098 795.5 1130.5 Q775 1163 734.5 1183.5 Q694 1204 641 1204 L334 1204 L334 831 Z " />
<glyph glyph-name="c" unicode="c" horiz-adv-x="1146" d="M61 399 L61 1026 Q61 1197 182.5 1319.5 Q304 1442 477 1442 L670 1442 Q844 1442 964.5 1318 Q1085 1194 1085 1026 L856 1026 Q856 1102 801 1157 Q746 1212 670 1212 L477 1212 Q400 1212 345.5 1157 Q291 1102 291 1026 L291 399 Q291 322 345.5 267.5 Q400 213 477 213 L670 213 Q746 213 801 267.5 Q856 322 856 399 L1085 399 Q1085 228 964 106 Q843 -16 670 -16 L477 -16 Q362 -16 265.5 41.5 Q169 99 115 194 Q61 289 61 399 Z " />
<glyph glyph-name="d" unicode="d" horiz-adv-x="1187" d="M102 0 L102 1434 L711 1434 Q882 1434 1002.5 1313.5 Q1123 1193 1126 1022 L1126 412 Q1123 241 1002.5 120.5 Q882 0 711 0 L102 0 Z M332 229 L711 229 Q787 229 842 284 Q897 339 897 416 L897 1018 Q897 1094 842.5 1149 Q788 1204 711 1204 L332 1204 L332 229 Z " />
<glyph glyph-name="e" unicode="e" horiz-adv-x="1114" d="M100 0 L102 1434 L1053 1434 L1053 1204 L332 1204 L332 831 L854 831 L854 602 L332 602 L332 229 L1053 229 L1053 0 L100 0 Z " />
<glyph glyph-name="f" unicode="f" horiz-adv-x="1052" d="M102 0 L102 1434 L1012 1434 L1012 1204 L332 1204 L332 831 L813 831 L813 602 L332 602 L332 0 L102 0 Z " />
<glyph glyph-name="g" unicode="g" horiz-adv-x="1146" d="M61 399 L61 1026 Q61 1197 182.5 1319.5 Q304 1442 477 1442 L670 1442 Q850 1442 967.5 1323 Q1085 1204 1085 1012 L856 1012 Q856 1116 804.5 1164 Q753 1212 670 1212 L477 1212 Q400 1212 345.5 1157 Q291 1102 291 1026 L291 399 Q291 322 345.5 267.5 Q400 213 477 213 L670 213 Q746 213 801 267.5 Q856 322 856 399 L856 522 L580 522 L580 733 L1085 733 L1085 399 Q1085 228 964 106 Q843 -16 670 -16 L477 -16 Q362 -16 265.5 41.5 Q169 99 115 194 Q61 289 61 399 Z " />
<glyph glyph-name="h" unicode="h" horiz-adv-x="1228" d="M102 0 L102 1434 L332 1434 L332 831 L897 831 L897 1434 L1126 1434 L1126 0 L897 0 L897 602 L332 602 L332 0 L102 0 Z " />
<glyph glyph-name="i" unicode="i" horiz-adv-x="528" d="M154 0 L154 1434 L375 1434 L375 0 L154 0 Z " />
<glyph glyph-name="j" unicode="j" horiz-adv-x="1085" d="M61 416 L61 518 L291 518 L291 416 Q291 339 346 284 Q401 229 477 229 L608 229 Q684 229 739.5 284.5 Q795 340 795 416 L795 1434 L1024 1434 L1024 416 Q1024 248 903 124 Q782 0 608 0 L477 0 Q304 0 182.5 122.5 Q61 245 61 416 Z " />
<glyph glyph-name="k" unicode="k" horiz-adv-x="1406" d="M102 0 L102 1434 L332 1434 L332 807 L975 1434 L1294 1434 L651 805 L1305 0 L1001 0 L463 657 L332 530 L332 0 L102 0 Z " />
<glyph glyph-name="l" unicode="l" horiz-adv-x="1075" d="M102 0 L102 1434 L332 1434 L332 229 L973 229 L973 0 L102 0 Z " />
<glyph glyph-name="m" unicode="m" horiz-adv-x="1433" d="M102 0 L102 1434 L276 1434 L717 784 L1157 1434 L1331 1434 L1331 0 L1102 0 L1102 946 L813 508 L625 508 L332 946 L332 0 L102 0 Z " />
<glyph glyph-name="n" unicode="n" horiz-adv-x="1392" d="M102 0 L102 1434 L276 1434 L1061 428 L1061 1434 L1290 1434 L1290 0 L1112 0 L332 1006 L332 0 L102 0 Z " />
<glyph glyph-name="o" unicode="o" horiz-adv-x="1249" d="M61 399 L63 1028 Q63 1199 183.5 1320.5 Q304 1442 477 1442 L774 1442 Q942 1442 1065 1322 Q1188 1202 1188 1034 L1188 395 Q1188 225 1066.5 104.5 Q945 -16 774 -16 L477 -16 Q305 -16 183 105 Q61 226 61 399 Z M291 399 Q291 321 345 267 Q399 213 477 213 L774 213 Q851 213 906 267 Q961 321 961 399 L961 1024 Q961 1101 905.5 1156.5 Q850 1212 774 1212 L477 1212 Q400 1212 345.5 1158 Q291 1104 291 1026 L291 399 Z " />
<glyph glyph-name="p" unicode="p" horiz-adv-x="1167" d="M102 0 L102 1434 L719 1434 Q818 1434 897.5 1394.5 Q977 1355 1026 1291 Q1075 1227 1102 1145 Q1128 1065 1128 980 Q1128 893 1100 809 Q1074 727 1025 663 Q976 599 896.5 559.5 Q817 520 719 520 L332 520 L332 0 L102 0 Z M332 750 L719 750 Q767 750 806 775 Q845 800 866 840 Q887 880 898 928 Q904 956 904 983 Q904 1004 900 1026 Q892 1074 872.5 1114 Q853 1154 812.5 1179 Q772 1204 719 1204 L332 1204 L332 750 Z " />
<glyph glyph-name="q" unicode="q" horiz-adv-x="1249" d="M61 399 L63 1028 Q63 1199 183.5 1320.5 Q304 1442 477 1442 L774 1442 Q942 1442 1065 1322 Q1188 1202 1188 1034 L1188 395 Q1188 225 1066.5 104.5 Q945 -16 774 -16 L756 -16 L758 -215 L512 -217 L510 -16 L477 -16 Q305 -16 183 105 Q61 226 61 399 Z M291 399 Q291 321 345 267 Q399 213 477 213 L510 213 L508 391 L754 393 L756 213 L774 213 Q851 213 906 267 Q961 321 961 399 L961 1024 Q961 1101 905.5 1156.5 Q850 1212 774 1212 L477 1212 Q400 1212 345.5 1158 Q291 1104 291 1026 L291 399 Z " />
<glyph glyph-name="r" unicode="r" horiz-adv-x="1243" d="M102 0 L102 1434 L707 1434 Q829 1434 924 1386.5 Q1019 1339 1069 1262 Q1120 1185 1144 1092 Q1159 1036 1159 979 Q1159 942 1152 904 Q1136 809 1097 729 Q1058 649 981.5 594.5 Q905 540 809 532 L1180 0 L913 0 L569 520 L332 520 L332 0 L102 0 Z M332 750 L686 750 Q770 750 826 797 Q884 844 896 910 Q902 943 902 976.5 Q902 1010 896 1044 Q884 1110 832 1157 Q780 1204 707 1204 L332 1204 L332 750 Z " />
<glyph glyph-name="s" unicode="s" horiz-adv-x="1228" d="M102 446 L332 446 Q332 330 384.5 273.5 Q437 217 526 217 L702 217 Q798 217 868 274 Q938 331 938 420 Q938 473 910 511 Q882 549 835 571 Q788 593 727 609.5 Q666 626 598 639.5 Q530 653 462.5 669.5 Q395 686 334 714 Q273 742 226 780.5 Q179 819 151 882.5 Q123 946 123 1030 Q123 1119 157 1197.5 Q191 1276 245.5 1328.5 Q300 1381 368.5 1411.5 Q437 1442 506 1442 L731 1442 Q910 1442 1022.5 1322.5 Q1135 1203 1135 997 L905 997 Q905 1212 707 1212 L524 1212 Q444 1212 398 1160.5 Q352 1109 352 1030 Q352 981 380 945.5 Q408 910 455 889.5 Q502 869 563 853.5 Q624 838 692 823.5 Q760 809 827.5 790.5 Q895 772 956 740 Q1017 708 1064 664 Q1111 620 1139 548 Q1167 476 1167 383 Q1167 270 1101.5 178.5 Q1036 87 930 37.5 Q824 -12 702 -12 L526 -12 Q438 -12 361.5 18.5 Q285 49 227 105.5 Q169 162 135.5 250 Q102 338 102 446 Z " />
<glyph glyph-name="t" unicode="t" horiz-adv-x="1083" d="M41 1204 L41 1434 L1042 1434 L1042 1204 L655 1204 L655 0 L428 0 L428 1204 L41 1204 Z " />
<glyph glyph-name="u" unicode="u" horiz-adv-x="1228" d="M102 399 L104 1434 L334 1434 L332 399 Q332 322 387 267.5 Q442 213 518 213 L711 213 Q788 213 842.5 267.5 Q897 322 897 399 L897 1434 L1126 1434 L1126 397 Q1126 216 1019.5 100 Q913 -16 711 -16 L518 -16 Q345 -16 223.5 105 Q102 226 102 399 Z " />
<glyph glyph-name="v" unicode="v" horiz-adv-x="1155" d="M20 1434 L262 1434 L578 465 L893 1434 L1135 1434 L659 0 L498 0 L20 1434 Z " />
<glyph glyph-name="w" unicode="w" horiz-adv-x="1433" d="M102 0 L102 1434 L332 1434 L332 487 L625 926 L813 926 L1102 487 L1102 1434 L1331 1434 L1331 0 L1157 0 L717 649 L276 0 L102 0 Z " />
<glyph glyph-name="x" unicode="x" horiz-adv-x="1263" d="M20 0 L485 717 L20 1434 L295 1434 L633 903 L969 1434 L1243 1434 L778 717 L1243 0 L969 0 L633 530 L295 0 L20 0 Z " />
<glyph glyph-name="y" unicode="y" horiz-adv-x="1271" d="M20 1434 L295 1434 L635 922 L975 1434 L1251 1434 L748 678 L750 0 L522 0 L520 678 L20 1434 Z " />
<glyph glyph-name="z" unicode="z" horiz-adv-x="1214" d="M102 0 L102 184 L807 1204 L102 1204 L102 1434 L1112 1434 L1112 1249 L428 229 L1112 229 L1112 0 L102 0 Z " />
<glyph glyph-name="braceleft" unicode="&#x7b;" horiz-adv-x="1040" d="M205 516 L205 745 Q287 745 333 794 Q379 843 379 909 L379 1298 Q379 1424 468.5 1514 Q558 1604 684 1604 L836 1604 L836 1374 L725 1374 Q662 1374 634 1347 Q606 1320 606 1257 L606 909 Q606 823 562.5 739.5 Q519 656 465 631 Q499 619 532 572 Q565 525 585.5 464 Q606 403 606 352 L606 4 Q606 -59 634 -86 Q662 -113 725 -113 L836 -113 L836 -342 L684 -342 Q558 -342 468.5 -252.5 Q379 -163 379 -37 L379 352 Q379 420 331.5 468 Q284 516 205 516 Z " />
<glyph glyph-name="bar" unicode="&#x7c;" horiz-adv-x="811" d="M307 -352 L307 1483 L504 1483 L504 -352 L307 -352 Z " />
<glyph glyph-name="braceright" unicode="&#x7d;" horiz-adv-x="1040" d="M205 -113 L315 -113 Q378 -113 406 -86 Q434 -59 434 4 L434 352 Q434 403 454.5 464 Q475 525 508 572 Q541 619 575 631 Q521 656 477.5 739.5 Q434 823 434 909 L434 1257 Q434 1320 406 1347 Q378 1374 315 1374 L205 1374 L205 1604 L356 1604 Q482 1604 572 1514 Q662 1424 662 1298 L662 909 Q662 843 708 794 Q754 745 836 745 L836 516 Q757 516 709.5 468 Q662 420 662 352 L662 -37 Q662 -163 572 -252.5 Q482 -342 356 -342 L205 -342 L205 -113 Z " />
<glyph glyph-name="asciitilde" unicode="&#x7e;" horiz-adv-x="1228" d="M246 528 Q246 650 312.5 725.5 Q379 801 487 801 Q525 801 559.5 786.5 Q594 772 616 755 Q638 738 667.5 723.5 Q697 709 725 709 Q764 709 783.5 738 Q803 767 803 801 L981 801 Q981 680 924 604 Q867 528 770 528 Q723 528 681 550.5 Q639 573 600 595.5 Q561 618 522 618 Q473 618 450.5 592 Q428 566 428 528 L246 528 Z " />
<glyph glyph-name="uni00A0" unicode="&#xa0;" horiz-adv-x="614" d="" />
<glyph glyph-name="exclamdown" unicode="&#xa1;" horiz-adv-x="737" d="M102 967 Q102 1033 148.5 1073.5 Q195 1114 266 1114 Q334 1114 382 1073.5 Q430 1033 430 967 Q430 900 382.5 860.5 Q335 821 266 821 Q195 821 148.5 860.5 Q102 900 102 967 Z M152 -336 L152 616 L381 616 L381 -336 L152 -336 Z " />
<glyph glyph-name="cent" unicode="&#xa2;" horiz-adv-x="1228" d="M90 719 Q90 926 217 1063.5 Q344 1201 553 1231 L553 1434 L776 1434 L776 1231 Q957 1207 1077 1096 L932 938 Q837 1024 664 1024 Q504 1024 404.5 946 Q305 868 305 719 Q305 571 401 491.5 Q497 412 664 412 Q843 412 934 500 L1079 342 Q957 232 776 205 L776 0 L553 0 L553 205 Q343 235 216.5 371.5 Q90 508 90 719 Z " />
<glyph glyph-name="sterling" unicode="&#xa3;" horiz-adv-x="1267" d="M205 0 L205 221 L367 221 Q417 221 448 259.5 Q479 298 479 342 L479 645 L281 645 L281 866 L479 866 L479 1135 Q479 1212 514.5 1281.5 Q550 1351 611 1395.5 Q672 1440 745.5 1458.5 Q819 1477 904 1452.5 Q989 1428 1063 1360 L905 1206 Q845 1251 799.5 1243.5 Q754 1236 727 1203.5 Q700 1171 700 1135 L700 866 L897 866 L897 645 L700 645 L700 342 Q700 256 641 221 L971 221 L971 0 L205 0 Z " />
<glyph glyph-name="currency" unicode="&#xa4;" horiz-adv-x="1228" d="M162 371 L293 502 Q246 587 246 683 Q246 779 293 864 L162 989 L305 1130 L436 1006 Q518 1053 615.5 1052.5 Q713 1052 797 1006 L922 1130 L1065 989 L938 864 Q985 779 985 683 Q985 587 938 502 L1065 371 L922 229 L797 360 Q713 314 615.5 313.5 Q518 313 436 360 L305 229 L162 371 Z M446 682 Q446 613 496 563.5 Q546 514 616 514 Q685 514 734.5 563.5 Q784 613 784 682 Q784 752 734.5 802 Q685 852 616 852 Q546 852 496 802 Q446 752 446 682 Z " />
<glyph glyph-name="yen" unicode="&#xa5;" horiz-adv-x="1312" d="M20 1434 L295 1434 L635 922 L975 1434 L1251 1434 L803 760 L1014 760 L1014 563 L748 563 L748 412 L1014 412 L1014 215 L750 215 L750 0 L522 0 L522 215 L281 215 L281 412 L520 412 L520 563 L281 563 L281 760 L467 760 L20 1434 Z " />
<glyph glyph-name="brokenbar" unicode="&#xa6;" horiz-adv-x="811" d="M307 -309 L307 332 L504 332 L504 -309 L307 -309 Z M307 791 L307 1432 L504 1432 L504 791 L307 791 Z " />
<glyph glyph-name="guillemotleft" unicode="&#xab;" horiz-adv-x="1249" d="M205 508 L205 588 L457 1006 L614 889 L387 549 L614 217 L457 100 L205 508 Z M635 508 L635 588 L887 1006 L1044 889 L817 549 L1044 217 L887 100 L635 508 Z " />
<glyph glyph-name="uni00AD" unicode="&#xad;" horiz-adv-x="1009" d="M184 471 L184 668 L825 668 L825 471 L184 471 Z " />
<glyph glyph-name="degree" unicode="&#xb0;" horiz-adv-x="1228" d="M326 1130 Q326 1247 408 1329 Q490 1411 610 1411 Q727 1411 809 1329 Q891 1247 891 1130 Q891 1010 809 928 Q727 846 610 846 Q490 846 408 928 Q326 1010 326 1130 Z M506 1133 Q506 1088 535 1057 Q564 1026 610 1026 Q651 1026 681 1057.5 Q711 1089 711 1133 Q711 1174 681 1203.5 Q651 1233 610 1233 Q564 1233 535 1204 Q506 1175 506 1133 Z " />
<glyph glyph-name="middot" unicode="&#xb7;" horiz-adv-x="1228" d="M438 664 Q438 731 486 779 Q534 827 602 827 L627 827 Q695 827 743 779 Q791 731 791 664 Q791 596 742.5 548 Q694 500 627 500 L602 500 Q534 500 486 548 Q438 596 438 664 Z " />
<glyph glyph-name="guillemotright" unicode="&#xbb;" horiz-adv-x="1249" d="M205 217 L432 549 L205 889 L362 1006 L614 588 L614 508 L362 100 L205 217 Z M635 217 L862 549 L635 889 L793 1006 L1044 588 L1044 508 L793 100 L635 217 Z " />
<glyph glyph-name="questiondown" unicode="&#xbf;" horiz-adv-x="1107" d="M164 113 Q164 185 186 236.5 Q208 288 242 316.5 Q276 345 317.5 367.5 Q359 390 399.5 413.5 Q440 437 472.5 469 Q505 501 522.5 557.5 Q540 614 535 694 L764 694 Q772 598 756 525.5 Q740 453 707.5 410 Q675 367 634.5 335 Q594 303 551.5 278.5 Q509 254 473.5 229 Q438 204 415.5 164.5 Q393 125 393 72 Q393 12 412 -29.5 Q431 -71 465.5 -92 Q500 -113 537 -121 Q574 -129 621 -129 Q672 -129 710.5 -121 Q749 -113 782.5 -92 Q816 -71 830.5 -29.5 Q845 12 838 72 L1065 72 Q1080 -131 957 -234.5 Q834 -338 610 -338 Q381 -338 272.5 -227.5 Q164 -117 164 113 Z M489 961 Q489 1018 529 1057 Q569 1096 625 1096 L645 1096 Q701 1096 740.5 1057 Q780 1018 780 961 Q780 905 740 865 Q700 825 645 825 L625 825 Q570 825 529.5 865.5 Q489 906 489 961 Z " />
<glyph glyph-name="Agrave" unicode="&#xc0;" horiz-adv-x="1327" d="M20 0 L586 1434 L743 1434 L1307 0 L1063 0 L942 313 L385 313 L268 0 L20 0 Z M442 1855 L655 1855 L762 1536 L588 1536 L442 1855 Z M453 545 L877 545 L664 1090 L453 545 Z " />
<glyph glyph-name="Aacute" unicode="&#xc1;" horiz-adv-x="1327" d="M20 0 L586 1434 L743 1434 L1307 0 L1063 0 L942 313 L385 313 L268 0 L20 0 Z M453 545 L877 545 L664 1090 L453 545 Z M573 1536 L680 1855 L893 1855 L748 1536 L573 1536 Z " />
<glyph glyph-name="Acircumflex" unicode="&#xc2;" horiz-adv-x="1327" d="M20 0 L586 1434 L743 1434 L1307 0 L1063 0 L942 313 L385 313 L268 0 L20 0 Z M360 1694 L625 1843 L705 1843 L969 1694 L852 1536 L666 1661 L477 1536 L360 1694 Z M453 545 L877 545 L664 1090 L453 545 Z " />
<glyph glyph-name="Atilde" unicode="&#xc3;" horiz-adv-x="1327" d="M20 0 L586 1434 L743 1434 L1307 0 L1063 0 L942 313 L385 313 L268 0 L20 0 Z M295 1536 Q295 1658 361.5 1733 Q428 1808 537 1808 Q585 1808 626 1785 Q667 1762 703 1739 Q739 1716 774 1716 Q813 1716 832.5 1745 Q852 1774 852 1808 L1030 1808 Q1030 1688 973 1612 Q916 1536 819 1536 Q772 1536 730 1558.5 Q688 1581 649 1603.5 Q610 1626 571 1626 Q522 1626 499.5 1600 Q477 1574 477 1536 L295 1536 Z M453 545 L877 545 L664 1090 L453 545 Z " />
<glyph glyph-name="Adieresis" unicode="&#xc4;" horiz-adv-x="1327" d="M20 0 L586 1434 L743 1434 L1307 0 L1063 0 L942 313 L385 313 L268 0 L20 0 Z M285 1683 Q285 1750 331.5 1789.5 Q378 1829 449 1829 Q518 1829 565 1789.5 Q612 1750 612 1683 Q612 1617 564.5 1576.5 Q517 1536 449 1536 Q378 1536 331.5 1576.5 Q285 1617 285 1683 Z M453 545 L877 545 L664 1090 L453 545 Z M715 1683 Q715 1750 761.5 1789.5 Q808 1829 879 1829 Q948 1829 995 1789.5 Q1042 1750 1042 1683 Q1042 1617 994.5 1576.5 Q947 1536 879 1536 Q808 1536 761.5 1576.5 Q715 1617 715 1683 Z " />
<glyph glyph-name="Aring" unicode="&#xc5;" horiz-adv-x="1327" d="M20 0 L586 1434 L743 1434 L1307 0 L1063 0 L942 313 L385 313 L268 0 L20 0 Z M408 1794 Q408 1899 482.5 1973.5 Q557 2048 664 2048 Q770 2048 845 1973 Q920 1898 920 1794 Q920 1687 845 1611.5 Q770 1536 664 1536 Q557 1536 482.5 1611.5 Q408 1687 408 1794 Z M453 545 L877 545 L664 1090 L453 545 Z M586 1794 Q586 1760 608 1737 Q630 1714 664 1714 Q697 1714 719 1737 Q741 1760 741 1794 Q741 1826 719.5 1848 Q698 1870 664 1870 Q630 1870 608 1848 Q586 1826 586 1794 Z " />
<glyph glyph-name="AE" unicode="&#xc6;" horiz-adv-x="1882" d="M102 0 L668 1434 L1780 1434 L1780 1204 L1100 1204 L1100 831 L1581 831 L1581 602 L1100 602 L1100 229 L1780 229 L1780 0 L868 0 L868 313 L467 313 L350 0 L102 0 Z M535 545 L868 543 L868 1204 L791 1204 L535 545 Z " />
<glyph glyph-name="Ccedilla" unicode="&#xc7;" horiz-adv-x="1146" d="M61 399 L61 1026 Q61 1197 182.5 1319.5 Q304 1442 477 1442 L670 1442 Q844 1442 964.5 1318 Q1085 1194 1085 1026 L856 1026 Q856 1102 801 1157 Q746 1212 670 1212 L477 1212 Q400 1212 345.5 1157 Q291 1102 291 1026 L291 399 Q291 322 345.5 267.5 Q400 213 477 213 L670 213 Q746 213 801 267.5 Q856 322 856 399 L1085 399 Q1085 228 964 106 Q843 -16 670 -16 L477 -16 Q362 -16 265.5 41.5 Q169 99 115 194 Q61 289 61 399 Z M340 -422 L485 -102 L659 -102 L553 -422 L340 -422 Z " />
<glyph glyph-name="Egrave" unicode="&#xc8;" horiz-adv-x="1114" d="M100 0 L102 1434 L1053 1434 L1053 1204 L332 1204 L332 831 L854 831 L854 602 L332 602 L332 229 L1053 229 L1053 0 L100 0 Z M336 1855 L549 1855 L655 1536 L481 1536 L336 1855 Z " />
<glyph glyph-name="Eacute" unicode="&#xc9;" horiz-adv-x="1114" d="M100 0 L102 1434 L1053 1434 L1053 1204 L332 1204 L332 831 L854 831 L854 602 L332 602 L332 229 L1053 229 L1053 0 L100 0 Z M467 1536 L573 1855 L786 1855 L641 1536 L467 1536 Z " />
<glyph glyph-name="Ecircumflex" unicode="&#xca;" horiz-adv-x="1114" d="M100 0 L102 1434 L1053 1434 L1053 1204 L332 1204 L332 831 L854 831 L854 602 L332 602 L332 229 L1053 229 L1053 0 L100 0 Z M254 1694 L518 1843 L598 1843 L862 1694 L745 1536 L559 1661 L371 1536 L254 1694 Z " />
<glyph glyph-name="Edieresis" unicode="&#xcb;" horiz-adv-x="1114" d="M100 0 L102 1434 L1053 1434 L1053 1204 L332 1204 L332 831 L854 831 L854 602 L332 602 L332 229 L1053 229 L1053 0 L100 0 Z M178 1683 Q178 1750 224.5 1789.5 Q271 1829 342 1829 Q411 1829 458.5 1789.5 Q506 1750 506 1683 Q506 1617 458 1576.5 Q410 1536 342 1536 Q271 1536 224.5 1576.5 Q178 1617 178 1683 Z M608 1683 Q608 1750 654.5 1789.5 Q701 1829 772 1829 Q841 1829 888.5 1789.5 Q936 1750 936 1683 Q936 1617 888 1576.5 Q840 1536 772 1536 Q701 1536 654.5 1576.5 Q608 1617 608 1683 Z " />
<glyph glyph-name="Igrave" unicode="&#xcc;" horiz-adv-x="528" d="M43 1855 L256 1855 L362 1536 L188 1536 L43 1855 Z M154 0 L154 1434 L375 1434 L375 0 L154 0 Z " />
<glyph glyph-name="Iacute" unicode="&#xcd;" horiz-adv-x="528" d="M154 0 L154 1434 L375 1434 L375 0 L154 0 Z M174 1536 L281 1855 L494 1855 L348 1536 L174 1536 Z " />
<glyph glyph-name="Icircumflex" unicode="&#xce;" horiz-adv-x="528" d="M-39 1694 L225 1843 L305 1843 L569 1694 L453 1536 L266 1661 L78 1536 L-39 1694 Z M154 0 L154 1434 L375 1434 L375 0 L154 0 Z " />
<glyph glyph-name="Idieresis" unicode="&#xcf;" horiz-adv-x="528" d="M-115 1683 Q-115 1750 -68.5 1789.5 Q-22 1829 49 1829 Q118 1829 165.5 1789.5 Q213 1750 213 1683 Q213 1617 165 1576.5 Q117 1536 49 1536 Q-22 1536 -68.5 1576.5 Q-115 1617 -115 1683 Z M154 0 L154 1434 L375 1434 L375 0 L154 0 Z M315 1683 Q315 1750 361.5 1789.5 Q408 1829 479 1829 Q548 1829 595.5 1789.5 Q643 1750 643 1683 Q643 1617 595 1576.5 Q547 1536 479 1536 Q408 1536 361.5 1576.5 Q315 1617 315 1683 Z " />
<glyph glyph-name="Eth" unicode="&#xd0;" horiz-adv-x="1452" d="M94 618 L94 815 L326 815 L326 1434 L934 1434 Q1105 1434 1226 1313.5 Q1347 1193 1350 1022 L1350 412 Q1347 241 1226 120.5 Q1105 0 934 0 L326 0 L326 618 L94 618 Z M555 229 L934 229 Q1010 229 1065 284 Q1120 339 1120 416 L1120 1018 Q1120 1094 1065 1149 Q1010 1204 934 1204 L555 1204 L555 815 L793 815 L793 618 L555 618 L555 229 Z " />
<glyph glyph-name="Ntilde" unicode="&#xd1;" horiz-adv-x="1392" d="M102 0 L102 1434 L276 1434 L1061 428 L1061 1434 L1290 1434 L1290 0 L1112 0 L332 1006 L332 0 L102 0 Z M328 1536 Q328 1658 394.5 1733 Q461 1808 569 1808 Q607 1808 641.5 1793.5 Q676 1779 698 1762 Q720 1745 749.5 1730.5 Q779 1716 807 1716 Q846 1716 865.5 1745 Q885 1774 885 1808 L1063 1808 Q1063 1688 1006 1612 Q949 1536 852 1536 Q805 1536 763 1558.5 Q721 1581 682 1603.5 Q643 1626 604 1626 Q555 1626 532.5 1600 Q510 1574 510 1536 L328 1536 Z " />
<glyph glyph-name="Ograve" unicode="&#xd2;" horiz-adv-x="1249" d="M61 399 L63 1028 Q63 1199 183.5 1320.5 Q304 1442 477 1442 L774 1442 Q942 1442 1065 1322 Q1188 1202 1188 1034 L1188 395 Q1188 225 1066.5 104.5 Q945 -16 774 -16 L477 -16 Q305 -16 183 105 Q61 226 61 399 Z M291 399 Q291 321 345 267 Q399 213 477 213 L774 213 Q851 213 906 267 Q961 321 961 399 L961 1024 Q961 1101 905.5 1156.5 Q850 1212 774 1212 L477 1212 Q400 1212 345.5 1158 Q291 1104 291 1026 L291 399 Z M403 1855 L616 1855 L723 1536 L549 1536 L403 1855 Z " />
<glyph glyph-name="Oacute" unicode="&#xd3;" horiz-adv-x="1249" d="M61 399 L63 1028 Q63 1199 183.5 1320.5 Q304 1442 477 1442 L774 1442 Q942 1442 1065 1322 Q1188 1202 1188 1034 L1188 395 Q1188 225 1066.5 104.5 Q945 -16 774 -16 L477 -16 Q305 -16 183 105 Q61 226 61 399 Z M291 399 Q291 321 345 267 Q399 213 477 213 L774 213 Q851 213 906 267 Q961 321 961 399 L961 1024 Q961 1101 905.5 1156.5 Q850 1212 774 1212 L477 1212 Q400 1212 345.5 1158 Q291 1104 291 1026 L291 399 Z M535 1536 L641 1855 L854 1855 L709 1536 L535 1536 Z " />
<glyph glyph-name="Ocircumflex" unicode="&#xd4;" horiz-adv-x="1249" d="M61 399 L63 1028 Q63 1199 183.5 1320.5 Q304 1442 477 1442 L774 1442 Q942 1442 1065 1322 Q1188 1202 1188 1034 L1188 395 Q1188 225 1066.5 104.5 Q945 -16 774 -16 L477 -16 Q305 -16 183 105 Q61 226 61 399 Z M291 399 Q291 321 345 267 Q399 213 477 213 L774 213 Q851 213 906 267 Q961 321 961 399 L961 1024 Q961 1101 905.5 1156.5 Q850 1212 774 1212 L477 1212 Q400 1212 345.5 1158 Q291 1104 291 1026 L291 399 Z M322 1694 L586 1843 L666 1843 L930 1694 L813 1536 L627 1661 L438 1536 L322 1694 Z " />
<glyph glyph-name="Otilde" unicode="&#xd5;" horiz-adv-x="1249" d="M61 399 L63 1028 Q63 1199 183.5 1320.5 Q304 1442 477 1442 L774 1442 Q942 1442 1065 1322 Q1188 1202 1188 1034 L1188 395 Q1188 225 1066.5 104.5 Q945 -16 774 -16 L477 -16 Q305 -16 183 105 Q61 226 61 399 Z M256 1536 Q256 1658 322.5 1733 Q389 1808 498 1808 Q546 1808 587 1785 Q628 1762 664 1739 Q700 1716 735 1716 Q774 1716 793.5 1745 Q813 1774 813 1808 L991 1808 Q991 1688 934 1612 Q877 1536 780 1536 Q733 1536 691 1558.5 Q649 1581 610 1603.5 Q571 1626 532 1626 Q483 1626 460.5 1600 Q438 1574 438 1536 L256 1536 Z M291 399 Q291 321 345 267 Q399 213 477 213 L774 213 Q851 213 906 267 Q961 321 961 399 L961 1024 Q961 1101 905.5 1156.5 Q850 1212 774 1212 L477 1212 Q400 1212 345.5 1158 Q291 1104 291 1026 L291 399 Z " />
<glyph glyph-name="Odieresis" unicode="&#xd6;" horiz-adv-x="1249" d="M61 399 L63 1028 Q63 1199 183.5 1320.5 Q304 1442 477 1442 L774 1442 Q942 1442 1065 1322 Q1188 1202 1188 1034 L1188 395 Q1188 225 1066.5 104.5 Q945 -16 774 -16 L477 -16 Q305 -16 183 105 Q61 226 61 399 Z M246 1683 Q246 1750 292.5 1789.5 Q339 1829 410 1829 Q479 1829 526 1789.5 Q573 1750 573 1683 Q573 1617 525.5 1576.5 Q478 1536 410 1536 Q339 1536 292.5 1576.5 Q246 1617 246 1683 Z M291 399 Q291 321 345 267 Q399 213 477 213 L774 213 Q851 213 906 267 Q961 321 961 399 L961 1024 Q961 1101 905.5 1156.5 Q850 1212 774 1212 L477 1212 Q400 1212 345.5 1158 Q291 1104 291 1026 L291 399 Z M676 1683 Q676 1750 722.5 1789.5 Q769 1829 840 1829 Q909 1829 956.5 1789.5 Q1004 1750 1004 1683 Q1004 1617 956 1576.5 Q908 1536 840 1536 Q769 1536 722.5 1576.5 Q676 1617 676 1683 Z " />
<glyph glyph-name="multiply" unicode="&#xd7;" horiz-adv-x="1198" d="M205 297 L461 553 L205 807 L344 946 L600 692 L854 946 L993 807 L739 553 L993 297 L854 158 L600 414 L344 158 L205 297 Z " />
<glyph glyph-name="Oslash" unicode="&#xd8;" horiz-adv-x="1249" d="M-82 -35 L111 203 Q61 298 61 399 L63 1028 Q63 1199 183.5 1320.5 Q304 1442 477 1442 L774 1442 Q921 1442 1036 1348 L1133 1468 L1331 1468 L1137 1229 Q1188 1141 1188 1034 L1188 395 Q1188 225 1066.5 104.5 Q945 -16 774 -16 L477 -16 Q329 -16 209 80 L117 -35 L-82 -35 Z M291 426 L891 1169 Q842 1212 774 1212 L477 1212 Q400 1212 345.5 1158 Q291 1104 291 1026 L291 426 Z M354 258 Q405 213 477 213 L774 213 Q851 213 906 267 Q961 321 961 399 L961 1010 L354 258 Z " />
<glyph glyph-name="Ugrave" unicode="&#xd9;" horiz-adv-x="1228" d="M102 399 L104 1434 L334 1434 L332 399 Q332 322 387 267.5 Q442 213 518 213 L711 213 Q788 213 842.5 267.5 Q897 322 897 399 L897 1434 L1126 1434 L1126 397 Q1126 216 1019.5 100 Q913 -16 711 -16 L518 -16 Q345 -16 223.5 105 Q102 226 102 399 Z M393 1855 L606 1855 L713 1536 L539 1536 L393 1855 Z " />
<glyph glyph-name="Uacute" unicode="&#xda;" horiz-adv-x="1228" d="M102 399 L104 1434 L334 1434 L332 399 Q332 322 387 267.5 Q442 213 518 213 L711 213 Q788 213 842.5 267.5 Q897 322 897 399 L897 1434 L1126 1434 L1126 397 Q1126 216 1019.5 100 Q913 -16 711 -16 L518 -16 Q345 -16 223.5 105 Q102 226 102 399 Z M524 1536 L631 1855 L844 1855 L698 1536 L524 1536 Z " />
<glyph glyph-name="Ucircumflex" unicode="&#xdb;" horiz-adv-x="1228" d="M102 399 L104 1434 L334 1434 L332 399 Q332 322 387 267.5 Q442 213 518 213 L711 213 Q788 213 842.5 267.5 Q897 322 897 399 L897 1434 L1126 1434 L1126 397 Q1126 216 1019.5 100 Q913 -16 711 -16 L518 -16 Q345 -16 223.5 105 Q102 226 102 399 Z M311 1694 L575 1843 L655 1843 L920 1694 L803 1536 L616 1661 L428 1536 L311 1694 Z " />
<glyph glyph-name="Udieresis" unicode="&#xdc;" horiz-adv-x="1228" d="M102 399 L104 1434 L334 1434 L332 399 Q332 322 387 267.5 Q442 213 518 213 L711 213 Q788 213 842.5 267.5 Q897 322 897 399 L897 1434 L1126 1434 L1126 397 Q1126 216 1019.5 100 Q913 -16 711 -16 L518 -16 Q345 -16 223.5 105 Q102 226 102 399 Z M236 1683 Q236 1750 282 1789.5 Q328 1829 399 1829 Q468 1829 515.5 1789.5 Q563 1750 563 1683 Q563 1617 515 1576.5 Q467 1536 399 1536 Q329 1536 282.5 1576.5 Q236 1617 236 1683 Z M666 1683 Q666 1750 712 1789.5 Q758 1829 829 1829 Q898 1829 945.5 1789.5 Q993 1750 993 1683 Q993 1617 945 1576.5 Q897 1536 829 1536 Q759 1536 712.5 1576.5 Q666 1617 666 1683 Z " />
<glyph glyph-name="Yacute" unicode="&#xdd;" horiz-adv-x="1271" d="M20 1434 L295 1434 L635 922 L975 1434 L1251 1434 L748 678 L750 0 L522 0 L520 678 L20 1434 Z M547 1536 L653 1855 L866 1855 L721 1536 L547 1536 Z " />
<glyph glyph-name="Thorn" unicode="&#xde;" horiz-adv-x="1228" d="M102 0 L102 1434 L332 1434 L332 1133 L719 1133 Q818 1133 897.5 1097.5 Q977 1062 1026 1003 Q1075 944 1101.5 869.5 Q1128 795 1127.5 717 Q1127 639 1100.5 564.5 Q1074 490 1025 431 Q976 372 896.5 336.5 Q817 301 719 301 L332 301 L332 0 L102 0 Z M332 530 L719 530 Q775 530 817.5 557.5 Q860 585 880.5 626.5 Q901 668 902.5 716.5 Q904 765 886 806.5 Q868 848 824.5 875.5 Q781 903 719 903 L332 903 L332 530 Z " />
<glyph glyph-name="germandbls" unicode="&#xdf;" horiz-adv-x="1228" d="M145 0 L145 1034 Q145 1212 260.5 1328 Q376 1444 555 1444 L598 1444 Q685 1444 761 1411 Q837 1378 890 1323.5 Q943 1269 975.5 1197 Q1008 1125 1014 1049.5 Q1020 974 996 896 Q972 818 918 754 Q994 688 1036.5 604 Q1079 520 1084 437.5 Q1089 355 1063.5 275 Q1038 195 986 134.5 Q934 74 853 37 Q772 0 676 0 L522 0 L522 229 L676 229 Q725 229 763.5 249.5 Q802 270 823 303 Q844 336 854.5 375.5 Q865 415 856 455 Q847 495 827.5 528 Q808 561 768 581.5 Q728 602 676 602 L522 602 L522 831 L598 831 Q647 831 686 852 Q725 873 746.5 907 Q768 941 778.5 981.5 Q789 1022 780.5 1063 Q772 1104 752 1138 Q732 1172 691.5 1193 Q651 1214 598 1214 L555 1214 Q478 1214 426.5 1162 Q375 1110 375 1034 L375 0 L145 0 Z " />
<glyph glyph-name="agrave" unicode="&#xe0;" horiz-adv-x="1327" d="M20 0 L586 1434 L743 1434 L1307 0 L1063 0 L942 313 L385 313 L268 0 L20 0 Z M442 1855 L655 1855 L762 1536 L588 1536 L442 1855 Z M453 545 L877 545 L664 1090 L453 545 Z " />
<glyph glyph-name="aacute" unicode="&#xe1;" horiz-adv-x="1327" d="M20 0 L586 1434 L743 1434 L1307 0 L1063 0 L942 313 L385 313 L268 0 L20 0 Z M453 545 L877 545 L664 1090 L453 545 Z M573 1536 L680 1855 L893 1855 L748 1536 L573 1536 Z " />
<glyph glyph-name="acircumflex" unicode="&#xe2;" horiz-adv-x="1327" d="M20 0 L586 1434 L743 1434 L1307 0 L1063 0 L942 313 L385 313 L268 0 L20 0 Z M360 1694 L625 1843 L705 1843 L969 1694 L852 1536 L666 1661 L477 1536 L360 1694 Z M453 545 L877 545 L664 1090 L453 545 Z " />
<glyph glyph-name="atilde" unicode="&#xe3;" horiz-adv-x="1327" d="M20 0 L586 1434 L743 1434 L1307 0 L1063 0 L942 313 L385 313 L268 0 L20 0 Z M295 1536 Q295 1658 361.5 1733 Q428 1808 537 1808 Q585 1808 626 1785 Q667 1762 703 1739 Q739 1716 774 1716 Q813 1716 832.5 1745 Q852 1774 852 1808 L1030 1808 Q1030 1688 973 1612 Q916 1536 819 1536 Q772 1536 730 1558.5 Q688 1581 649 1603.5 Q610 1626 571 1626 Q522 1626 499.5 1600 Q477 1574 477 1536 L295 1536 Z M453 545 L877 545 L664 1090 L453 545 Z " />
<glyph glyph-name="adieresis" unicode="&#xe4;" horiz-adv-x="1327" d="M20 0 L586 1434 L743 1434 L1307 0 L1063 0 L942 313 L385 313 L268 0 L20 0 Z M285 1683 Q285 1750 331.5 1789.5 Q378 1829 449 1829 Q518 1829 565 1789.5 Q612 1750 612 1683 Q612 1617 564.5 1576.5 Q517 1536 449 1536 Q378 1536 331.5 1576.5 Q285 1617 285 1683 Z M453 545 L877 545 L664 1090 L453 545 Z M715 1683 Q715 1750 761.5 1789.5 Q808 1829 879 1829 Q948 1829 995 1789.5 Q1042 1750 1042 1683 Q1042 1617 994.5 1576.5 Q947 1536 879 1536 Q808 1536 761.5 1576.5 Q715 1617 715 1683 Z " />
<glyph glyph-name="aring" unicode="&#xe5;" horiz-adv-x="1327" d="M20 0 L586 1434 L743 1434 L1307 0 L1063 0 L942 313 L385 313 L268 0 L20 0 Z M408 1794 Q408 1899 482.5 1973.5 Q557 2048 664 2048 Q770 2048 845 1973 Q920 1898 920 1794 Q920 1687 845 1611.5 Q770 1536 664 1536 Q557 1536 482.5 1611.5 Q408 1687 408 1794 Z M453 545 L877 545 L664 1090 L453 545 Z M586 1794 Q586 1760 608 1737 Q630 1714 664 1714 Q697 1714 719 1737 Q741 1760 741 1794 Q741 1826 719.5 1848 Q698 1870 664 1870 Q630 1870 608 1848 Q586 1826 586 1794 Z " />
<glyph glyph-name="ae" unicode="&#xe6;" horiz-adv-x="1882" d="M102 0 L668 1434 L1780 1434 L1780 1204 L1100 1204 L1100 831 L1581 831 L1581 602 L1100 602 L1100 229 L1780 229 L1780 0 L868 0 L868 313 L467 313 L350 0 L102 0 Z M535 545 L868 543 L868 1204 L791 1204 L535 545 Z " />
<glyph glyph-name="ccedilla" unicode="&#xe7;" horiz-adv-x="1146" d="M61 399 L61 1026 Q61 1197 182.5 1319.5 Q304 1442 477 1442 L670 1442 Q844 1442 964.5 1318 Q1085 1194 1085 1026 L856 1026 Q856 1102 801 1157 Q746 1212 670 1212 L477 1212 Q400 1212 345.5 1157 Q291 1102 291 1026 L291 399 Q291 322 345.5 267.5 Q400 213 477 213 L670 213 Q746 213 801 267.5 Q856 322 856 399 L1085 399 Q1085 228 964 106 Q843 -16 670 -16 L477 -16 Q362 -16 265.5 41.5 Q169 99 115 194 Q61 289 61 399 Z M340 -422 L485 -102 L659 -102 L553 -422 L340 -422 Z " />
<glyph glyph-name="egrave" unicode="&#xe8;" horiz-adv-x="1114" d="M100 0 L102 1434 L1053 1434 L1053 1204 L332 1204 L332 831 L854 831 L854 602 L332 602 L332 229 L1053 229 L1053 0 L100 0 Z M336 1855 L549 1855 L655 1536 L481 1536 L336 1855 Z " />
<glyph glyph-name="eacute" unicode="&#xe9;" horiz-adv-x="1114" d="M100 0 L102 1434 L1053 1434 L1053 1204 L332 1204 L332 831 L854 831 L854 602 L332 602 L332 229 L1053 229 L1053 0 L100 0 Z M467 1536 L573 1855 L786 1855 L641 1536 L467 1536 Z " />
<glyph glyph-name="ecircumflex" unicode="&#xea;" horiz-adv-x="1114" d="M100 0 L102 1434 L1053 1434 L1053 1204 L332 1204 L332 831 L854 831 L854 602 L332 602 L332 229 L1053 229 L1053 0 L100 0 Z M254 1694 L518 1843 L598 1843 L862 1694 L745 1536 L559 1661 L371 1536 L254 1694 Z " />
<glyph glyph-name="edieresis" unicode="&#xeb;" horiz-adv-x="1114" d="M100 0 L102 1434 L1053 1434 L1053 1204 L332 1204 L332 831 L854 831 L854 602 L332 602 L332 229 L1053 229 L1053 0 L100 0 Z M178 1683 Q178 1750 224.5 1789.5 Q271 1829 342 1829 Q411 1829 458.5 1789.5 Q506 1750 506 1683 Q506 1617 458 1576.5 Q410 1536 342 1536 Q271 1536 224.5 1576.5 Q178 1617 178 1683 Z M608 1683 Q608 1750 654.5 1789.5 Q701 1829 772 1829 Q841 1829 888.5 1789.5 Q936 1750 936 1683 Q936 1617 888 1576.5 Q840 1536 772 1536 Q701 1536 654.5 1576.5 Q608 1617 608 1683 Z " />
<glyph glyph-name="igrave" unicode="&#xec;" horiz-adv-x="528" d="M43 1855 L256 1855 L362 1536 L188 1536 L43 1855 Z M154 0 L154 1434 L375 1434 L375 0 L154 0 Z " />
<glyph glyph-name="iacute" unicode="&#xed;" horiz-adv-x="528" d="M154 0 L154 1434 L375 1434 L375 0 L154 0 Z M174 1536 L281 1855 L494 1855 L348 1536 L174 1536 Z " />
<glyph glyph-name="icircumflex" unicode="&#xee;" horiz-adv-x="528" d="M-39 1694 L225 1843 L305 1843 L569 1694 L453 1536 L266 1661 L78 1536 L-39 1694 Z M154 0 L154 1434 L375 1434 L375 0 L154 0 Z " />
<glyph glyph-name="idieresis" unicode="&#xef;" horiz-adv-x="528" d="M-115 1683 Q-115 1750 -68.5 1789.5 Q-22 1829 49 1829 Q118 1829 165.5 1789.5 Q213 1750 213 1683 Q213 1617 165 1576.5 Q117 1536 49 1536 Q-22 1536 -68.5 1576.5 Q-115 1617 -115 1683 Z M154 0 L154 1434 L375 1434 L375 0 L154 0 Z M315 1683 Q315 1750 361.5 1789.5 Q408 1829 479 1829 Q548 1829 595.5 1789.5 Q643 1750 643 1683 Q643 1617 595 1576.5 Q547 1536 479 1536 Q408 1536 361.5 1576.5 Q315 1617 315 1683 Z " />
<glyph glyph-name="eth" unicode="&#xf0;" horiz-adv-x="1452" d="M94 618 L94 815 L326 815 L326 1434 L934 1434 Q1105 1434 1226 1313.5 Q1347 1193 1350 1022 L1350 412 Q1347 241 1226 120.5 Q1105 0 934 0 L326 0 L326 618 L94 618 Z M555 229 L934 229 Q1010 229 1065 284 Q1120 339 1120 416 L1120 1018 Q1120 1094 1065 1149 Q1010 1204 934 1204 L555 1204 L555 815 L793 815 L793 618 L555 618 L555 229 Z " />
<glyph glyph-name="ntilde" unicode="&#xf1;" horiz-adv-x="1392" d="M102 0 L102 1434 L276 1434 L1061 428 L1061 1434 L1290 1434 L1290 0 L1112 0 L332 1006 L332 0 L102 0 Z M328 1536 Q328 1658 394.5 1733 Q461 1808 569 1808 Q607 1808 641.5 1793.5 Q676 1779 698 1762 Q720 1745 749.5 1730.5 Q779 1716 807 1716 Q846 1716 865.5 1745 Q885 1774 885 1808 L1063 1808 Q1063 1688 1006 1612 Q949 1536 852 1536 Q805 1536 763 1558.5 Q721 1581 682 1603.5 Q643 1626 604 1626 Q555 1626 532.5 1600 Q510 1574 510 1536 L328 1536 Z " />
<glyph glyph-name="ograve" unicode="&#xf2;" horiz-adv-x="1249" d="M61 399 L63 1028 Q63 1199 183.5 1320.5 Q304 1442 477 1442 L774 1442 Q942 1442 1065 1322 Q1188 1202 1188 1034 L1188 395 Q1188 225 1066.5 104.5 Q945 -16 774 -16 L477 -16 Q305 -16 183 105 Q61 226 61 399 Z M291 399 Q291 321 345 267 Q399 213 477 213 L774 213 Q851 213 906 267 Q961 321 961 399 L961 1024 Q961 1101 905.5 1156.5 Q850 1212 774 1212 L477 1212 Q400 1212 345.5 1158 Q291 1104 291 1026 L291 399 Z M403 1855 L616 1855 L723 1536 L549 1536 L403 1855 Z " />
<glyph glyph-name="oacute" unicode="&#xf3;" horiz-adv-x="1249" d="M61 399 L63 1028 Q63 1199 183.5 1320.5 Q304 1442 477 1442 L774 1442 Q942 1442 1065 1322 Q1188 1202 1188 1034 L1188 395 Q1188 225 1066.5 104.5 Q945 -16 774 -16 L477 -16 Q305 -16 183 105 Q61 226 61 399 Z M291 399 Q291 321 345 267 Q399 213 477 213 L774 213 Q851 213 906 267 Q961 321 961 399 L961 1024 Q961 1101 905.5 1156.5 Q850 1212 774 1212 L477 1212 Q400 1212 345.5 1158 Q291 1104 291 1026 L291 399 Z M535 1536 L641 1855 L854 1855 L709 1536 L535 1536 Z " />
<glyph glyph-name="ocircumflex" unicode="&#xf4;" horiz-adv-x="1249" d="M61 399 L63 1028 Q63 1199 183.5 1320.5 Q304 1442 477 1442 L774 1442 Q942 1442 1065 1322 Q1188 1202 1188 1034 L1188 395 Q1188 225 1066.5 104.5 Q945 -16 774 -16 L477 -16 Q305 -16 183 105 Q61 226 61 399 Z M291 399 Q291 321 345 267 Q399 213 477 213 L774 213 Q851 213 906 267 Q961 321 961 399 L961 1024 Q961 1101 905.5 1156.5 Q850 1212 774 1212 L477 1212 Q400 1212 345.5 1158 Q291 1104 291 1026 L291 399 Z M322 1694 L586 1843 L666 1843 L930 1694 L813 1536 L627 1661 L438 1536 L322 1694 Z " />
<glyph glyph-name="otilde" unicode="&#xf5;" horiz-adv-x="1249" d="M61 399 L63 1028 Q63 1199 183.5 1320.5 Q304 1442 477 1442 L774 1442 Q942 1442 1065 1322 Q1188 1202 1188 1034 L1188 395 Q1188 225 1066.5 104.5 Q945 -16 774 -16 L477 -16 Q305 -16 183 105 Q61 226 61 399 Z M256 1536 Q256 1658 322.5 1733 Q389 1808 498 1808 Q546 1808 587 1785 Q628 1762 664 1739 Q700 1716 735 1716 Q774 1716 793.5 1745 Q813 1774 813 1808 L991 1808 Q991 1688 934 1612 Q877 1536 780 1536 Q733 1536 691 1558.5 Q649 1581 610 1603.5 Q571 1626 532 1626 Q483 1626 460.5 1600 Q438 1574 438 1536 L256 1536 Z M291 399 Q291 321 345 267 Q399 213 477 213 L774 213 Q851 213 906 267 Q961 321 961 399 L961 1024 Q961 1101 905.5 1156.5 Q850 1212 774 1212 L477 1212 Q400 1212 345.5 1158 Q291 1104 291 1026 L291 399 Z " />
<glyph glyph-name="odieresis" unicode="&#xf6;" horiz-adv-x="1249" d="M61 399 L63 1028 Q63 1199 183.5 1320.5 Q304 1442 477 1442 L774 1442 Q942 1442 1065 1322 Q1188 1202 1188 1034 L1188 395 Q1188 225 1066.5 104.5 Q945 -16 774 -16 L477 -16 Q305 -16 183 105 Q61 226 61 399 Z M246 1683 Q246 1750 292.5 1789.5 Q339 1829 410 1829 Q479 1829 526 1789.5 Q573 1750 573 1683 Q573 1617 525.5 1576.5 Q478 1536 410 1536 Q339 1536 292.5 1576.5 Q246 1617 246 1683 Z M291 399 Q291 321 345 267 Q399 213 477 213 L774 213 Q851 213 906 267 Q961 321 961 399 L961 1024 Q961 1101 905.5 1156.5 Q850 1212 774 1212 L477 1212 Q400 1212 345.5 1158 Q291 1104 291 1026 L291 399 Z M676 1683 Q676 1750 722.5 1789.5 Q769 1829 840 1829 Q909 1829 956.5 1789.5 Q1004 1750 1004 1683 Q1004 1617 956 1576.5 Q908 1536 840 1536 Q769 1536 722.5 1576.5 Q676 1617 676 1683 Z " />
<glyph glyph-name="divide" unicode="&#xf7;" horiz-adv-x="1327" d="M205 473 L205 670 L1122 670 L1122 473 L205 473 Z M560.5 114.5 Q522 153 522 207 Q522 261 560.5 299.5 Q599 338 653 338 L674 338 Q728 338 766.5 299.5 Q805 261 805 207 Q805 153 766.5 114.5 Q728 76 674 76 L653 76 Q599 76 560.5 114.5 Z M560.5 839.5 Q522 878 522 932 Q522 986 560.5 1024.5 Q599 1063 653 1063 L674 1063 Q728 1063 766.5 1024.5 Q805 986 805 932 Q805 878 766.5 839.5 Q728 801 674 801 L653 801 Q599 801 560.5 839.5 Z " />
<glyph glyph-name="oslash" unicode="&#xf8;" horiz-adv-x="1249" d="M-82 -35 L111 203 Q61 298 61 399 L63 1028 Q63 1199 183.5 1320.5 Q304 1442 477 1442 L774 1442 Q921 1442 1036 1348 L1133 1468 L1331 1468 L1137 1229 Q1188 1141 1188 1034 L1188 395 Q1188 225 1066.5 104.5 Q945 -16 774 -16 L477 -16 Q329 -16 209 80 L117 -35 L-82 -35 Z M291 426 L891 1169 Q842 1212 774 1212 L477 1212 Q400 1212 345.5 1158 Q291 1104 291 1026 L291 426 Z M354 258 Q405 213 477 213 L774 213 Q851 213 906 267 Q961 321 961 399 L961 1010 L354 258 Z " />
<glyph glyph-name="ugrave" unicode="&#xf9;" horiz-adv-x="1228" d="M102 399 L104 1434 L334 1434 L332 399 Q332 322 387 267.5 Q442 213 518 213 L711 213 Q788 213 842.5 267.5 Q897 322 897 399 L897 1434 L1126 1434 L1126 397 Q1126 216 1019.5 100 Q913 -16 711 -16 L518 -16 Q345 -16 223.5 105 Q102 226 102 399 Z M393 1855 L606 1855 L713 1536 L539 1536 L393 1855 Z " />
<glyph glyph-name="uacute" unicode="&#xfa;" horiz-adv-x="1228" d="M102 399 L104 1434 L334 1434 L332 399 Q332 322 387 267.5 Q442 213 518 213 L711 213 Q788 213 842.5 267.5 Q897 322 897 399 L897 1434 L1126 1434 L1126 397 Q1126 216 1019.5 100 Q913 -16 711 -16 L518 -16 Q345 -16 223.5 105 Q102 226 102 399 Z M524 1536 L631 1855 L844 1855 L698 1536 L524 1536 Z " />
<glyph glyph-name="ucircumflex" unicode="&#xfb;" horiz-adv-x="1228" d="M102 399 L104 1434 L334 1434 L332 399 Q332 322 387 267.5 Q442 213 518 213 L711 213 Q788 213 842.5 267.5 Q897 322 897 399 L897 1434 L1126 1434 L1126 397 Q1126 216 1019.5 100 Q913 -16 711 -16 L518 -16 Q345 -16 223.5 105 Q102 226 102 399 Z M311 1694 L575 1843 L655 1843 L920 1694 L803 1536 L616 1661 L428 1536 L311 1694 Z " />
<glyph glyph-name="udieresis" unicode="&#xfc;" horiz-adv-x="1228" d="M102 399 L104 1434 L334 1434 L332 399 Q332 322 387 267.5 Q442 213 518 213 L711 213 Q788 213 842.5 267.5 Q897 322 897 399 L897 1434 L1126 1434 L1126 397 Q1126 216 1019.5 100 Q913 -16 711 -16 L518 -16 Q345 -16 223.5 105 Q102 226 102 399 Z M236 1683 Q236 1750 282 1789.5 Q328 1829 399 1829 Q468 1829 515.5 1789.5 Q563 1750 563 1683 Q563 1617 515 1576.5 Q467 1536 399 1536 Q329 1536 282.5 1576.5 Q236 1617 236 1683 Z M666 1683 Q666 1750 712 1789.5 Q758 1829 829 1829 Q898 1829 945.5 1789.5 Q993 1750 993 1683 Q993 1617 945 1576.5 Q897 1536 829 1536 Q759 1536 712.5 1576.5 Q666 1617 666 1683 Z " />
<glyph glyph-name="yacute" unicode="&#xfd;" horiz-adv-x="1271" d="M20 1434 L295 1434 L635 922 L975 1434 L1251 1434 L748 678 L750 0 L522 0 L520 678 L20 1434 Z M547 1536 L653 1855 L866 1855 L721 1536 L547 1536 Z " />
<glyph glyph-name="thorn" unicode="&#xfe;" horiz-adv-x="1228" d="M102 0 L102 1434 L332 1434 L332 1133 L719 1133 Q818 1133 897.5 1097.5 Q977 1062 1026 1003 Q1075 944 1101.5 869.5 Q1128 795 1127.5 717 Q1127 639 1100.5 564.5 Q1074 490 1025 431 Q976 372 896.5 336.5 Q817 301 719 301 L332 301 L332 0 L102 0 Z M332 530 L719 530 Q775 530 817.5 557.5 Q860 585 880.5 626.5 Q901 668 902.5 716.5 Q904 765 886 806.5 Q868 848 824.5 875.5 Q781 903 719 903 L332 903 L332 530 Z " />
<glyph glyph-name="ydieresis" unicode="&#xff;" horiz-adv-x="1271" d="M20 1434 L295 1434 L635 922 L975 1434 L1251 1434 L748 678 L750 0 L522 0 L520 678 L20 1434 Z M258 1683 Q258 1750 304.5 1789.5 Q351 1829 422 1829 Q491 1829 538.5 1789.5 Q586 1750 586 1683 Q586 1617 538 1576.5 Q490 1536 422 1536 Q351 1536 304.5 1576.5 Q258 1617 258 1683 Z M688 1683 Q688 1750 734.5 1789.5 Q781 1829 852 1829 Q921 1829 968.5 1789.5 Q1016 1750 1016 1683 Q1016 1617 968 1576.5 Q920 1536 852 1536 Q781 1536 734.5 1576.5 Q688 1617 688 1683 Z " />
<glyph glyph-name="OE" unicode="&#x152;" horiz-adv-x="1718" d="M102 416 L104 1020 Q104 1191 224.5 1312.5 Q345 1434 518 1434 L1616 1434 L1616 1204 L936 1204 L936 831 L1417 831 L1417 602 L936 602 L936 229 L1616 229 L1616 0 L518 0 Q346 0 224 121.5 Q102 243 102 416 Z M332 416 Q332 338 386 283.5 Q440 229 518 229 L705 229 L707 1204 L518 1204 Q441 1204 386.5 1150 Q332 1096 332 1018 L332 416 Z " />
<glyph glyph-name="oe" unicode="&#x153;" horiz-adv-x="1718" d="M102 416 L104 1020 Q104 1191 224.5 1312.5 Q345 1434 518 1434 L1616 1434 L1616 1204 L936 1204 L936 831 L1417 831 L1417 602 L936 602 L936 229 L1616 229 L1616 0 L518 0 Q346 0 224 121.5 Q102 243 102 416 Z M332 416 Q332 338 386 283.5 Q440 229 518 229 L705 229 L707 1204 L518 1204 Q441 1204 386.5 1150 Q332 1096 332 1018 L332 416 Z " />
<glyph glyph-name="Ydieresis" unicode="&#x178;" horiz-adv-x="1271" d="M20 1434 L295 1434 L635 922 L975 1434 L1251 1434 L748 678 L750 0 L522 0 L520 678 L20 1434 Z M258 1683 Q258 1750 304.5 1789.5 Q351 1829 422 1829 Q491 1829 538.5 1789.5 Q586 1750 586 1683 Q586 1617 538 1576.5 Q490 1536 422 1536 Q351 1536 304.5 1576.5 Q258 1617 258 1683 Z M688 1683 Q688 1750 734.5 1789.5 Q781 1829 852 1829 Q921 1829 968.5 1789.5 Q1016 1750 1016 1683 Q1016 1617 968 1576.5 Q920 1536 852 1536 Q781 1536 734.5 1576.5 Q688 1617 688 1683 Z " />
<glyph glyph-name="uni2000" unicode="&#x2000;" horiz-adv-x="1024" d="" />
<glyph glyph-name="uni2001" unicode="&#x2001;" horiz-adv-x="2048" d="" />
<glyph glyph-name="uni2002" unicode="&#x2002;" horiz-adv-x="1024" d="" />
<glyph glyph-name="uni2003" unicode="&#x2003;" horiz-adv-x="2048" d="" />
<glyph glyph-name="uni2004" unicode="&#x2004;" horiz-adv-x="682" d="" />
<glyph glyph-name="uni2005" unicode="&#x2005;" horiz-adv-x="512" d="" />
<glyph glyph-name="uni2006" unicode="&#x2006;" horiz-adv-x="341" d="" />
<glyph glyph-name="uni2007" unicode="&#x2007;" horiz-adv-x="341" d="" />
<glyph glyph-name="uni2008" unicode="&#x2008;" horiz-adv-x="256" d="" />
<glyph glyph-name="uni2009" unicode="&#x2009;" horiz-adv-x="409" d="" />
<glyph glyph-name="uni200A" unicode="&#x200a;" horiz-adv-x="113" d="" />
<glyph glyph-name="uni2010" unicode="&#x2010;" horiz-adv-x="1009" d="M184 471 L184 668 L825 668 L825 471 L184 471 Z " />
<glyph glyph-name="uni2011" unicode="&#x2011;" horiz-adv-x="1009" d="M184 471 L184 668 L825 668 L825 471 L184 471 Z " />
<glyph glyph-name="figuredash" unicode="&#x2012;" horiz-adv-x="1009" d="M184 471 L184 668 L825 668 L825 471 L184 471 Z " />
<glyph glyph-name="endash" unicode="&#x2013;" horiz-adv-x="1245" d="M164 498 L164 694 L1081 694 L1081 498 L164 498 Z " />
<glyph glyph-name="emdash" unicode="&#x2014;" horiz-adv-x="1916" d="M41 483 L41 680 L1876 680 L1876 483 L41 483 Z " />
<glyph glyph-name="quoteleft" unicode="&#x2018;" horiz-adv-x="571" d="M102 1014 L295 1438 L469 1438 L315 1014 L102 1014 Z " />
<glyph glyph-name="quoteright" unicode="&#x2019;" horiz-adv-x="571" d="M102 1014 L256 1438 L469 1438 L276 1014 L102 1014 Z " />
<glyph glyph-name="quotesinglbase" unicode="&#x201a;" horiz-adv-x="1228" d="M102 -219 L256 205 L469 205 L276 -219 L102 -219 Z " />
<glyph glyph-name="quotedblleft" unicode="&#x201c;" horiz-adv-x="1144" d="M164 1024 L356 1448 L530 1448 L377 1024 L164 1024 Z M614 1024 L807 1448 L981 1448 L827 1024 L614 1024 Z " />
<glyph glyph-name="quotedblright" unicode="&#x201d;" horiz-adv-x="1226" d="M205 1024 L358 1448 L571 1448 L379 1024 L205 1024 Z M655 1024 L809 1448 L1022 1448 L829 1024 L655 1024 Z " />
<glyph glyph-name="quotedblbase" unicode="&#x201e;" horiz-adv-x="1228" d="M102 -219 L256 205 L469 205 L276 -219 L102 -219 Z " />
<glyph glyph-name="bullet" unicode="&#x2022;" horiz-adv-x="1228" d="M305 606 Q305 720 386 800.5 Q467 881 584 881 L637 881 Q754 881 837 800.5 Q920 720 920 606 Q920 489 837 408.5 Q754 328 637 328 L584 328 Q467 328 386 408.5 Q305 489 305 606 Z " />
<glyph glyph-name="ellipsis" unicode="&#x2026;" horiz-adv-x="839" d="M102 131 Q102 198 148.5 237 Q195 276 266 276 Q335 276 382.5 237 Q430 198 430 131 Q430 65 382 24.5 Q334 -16 266 -16 Q195 -16 148.5 24.5 Q102 65 102 131 Z " />
<glyph glyph-name="uni202F" unicode="&#x202f;" horiz-adv-x="409" d="" />
<glyph glyph-name="guilsinglleft" unicode="&#x2039;" horiz-adv-x="819" d="M205 508 L205 588 L457 1006 L614 889 L387 549 L614 217 L457 100 L205 508 Z " />
<glyph glyph-name="guilsinglright" unicode="&#x203a;" horiz-adv-x="819" d="M205 217 L432 549 L205 889 L362 1006 L614 588 L614 508 L362 100 L205 217 Z " />
<glyph glyph-name="uni205F" unicode="&#x205f;" horiz-adv-x="512" d="" />
<glyph glyph-name="Euro" unicode="&#x20ac;" horiz-adv-x="1525" d="M205 465 L205 662 L428 662 L428 770 L205 770 L205 967 L428 967 L428 1018 Q428 1189 549.5 1311.5 Q671 1434 844 1434 L1036 1434 Q1202 1434 1321 1321 L1178 1139 Q1123 1204 1036 1204 L844 1204 Q767 1204 712 1149 Q657 1094 657 1018 L657 967 L1122 967 L1122 770 L657 770 L657 662 L1122 662 L1122 465 L657 465 L657 416 Q657 340 712.5 284.5 Q768 229 844 229 L1036 229 Q1122 229 1178 295 L1321 113 Q1202 0 1036 0 L844 0 Q671 0 549.5 122.5 Q428 245 428 416 L428 465 L205 465 Z " />
<glyph glyph-name="trademark" unicode="&#x2122;" horiz-adv-x="2516" d="M41 1204 L41 1434 L1042 1434 L1042 1204 L655 1204 L655 0 L428 0 L428 1204 L41 1204 Z M1186 0 L1186 1434 L1360 1434 L1800 784 L2241 1434 L2415 1434 L2415 0 L2185 0 L2185 946 L1896 508 L1708 508 L1415 946 L1415 0 L1186 0 Z " />
<glyph glyph-name="uni25FC" unicode="&#x25fc;" horiz-adv-x="1433" d="M0 0 L0 1434 L1434 1434 L1434 0 L0 0 Z " />
</font>
</svg>
